<svg width="420" height="391" viewBox="0 0 420 391" fill="none" xmlns="http://www.w3.org/2000/svg">
<rect x="0.386645" y="0.386645" width="419.227" height="389.827" rx="5.36668" fill="white"/>
<rect x="0.386645" y="0.386645" width="419.227" height="389.827" rx="5.36668" stroke="#CAC4D0" stroke-width="0.77329"/>
<rect width="63.6364" height="7.63636" transform="translate(12.6641 12.6641)" fill="#D4D4D4"/>
<rect x="12.8232" y="35.7314" width="175.955" height="9.86364" stroke="#D4D4D4" stroke-width="0.318182"/>
<rect x="319.931" y="35.7314" width="24.5" height="9.86364" fill="white"/>
<rect x="319.931" y="35.7314" width="24.5" height="9.86364" stroke="#D4D4D4" stroke-width="0.318182"/>
<rect x="351.112" y="35.7314" width="24.2473" height="9.77122" fill="white"/>
<rect x="351.112" y="35.7314" width="24.2473" height="9.77122" stroke="#D4D4D4" stroke-width="0.318182"/>
<rect width="25.4545" height="10.1818" transform="translate(381.883 35.5723)" fill="#D4D4D4"/>
<rect x="12.8232" y="56.0946" width="21.6153" height="9.77122" fill="white"/>
<rect x="12.8232" y="56.0946" width="21.6153" height="9.77122" stroke="#D4D4D4" stroke-width="0.318182"/>
<rect x="41.12" y="56.0946" width="21.6153" height="9.77122" fill="white"/>
<rect x="41.12" y="56.0946" width="21.6153" height="9.77122" stroke="#D4D4D4" stroke-width="0.318182"/>
<rect x="69.4169" y="56.0946" width="21.6153" height="9.77122" fill="white"/>
<rect x="69.4169" y="56.0946" width="21.6153" height="9.77122" stroke="#D4D4D4" stroke-width="0.318182"/>
<rect x="97.7138" y="56.0946" width="21.6153" height="9.77122" fill="white"/>
<rect x="97.7138" y="56.0946" width="21.6153" height="9.77122" stroke="#D4D4D4" stroke-width="0.318182"/>
<rect width="394.672" height="16.5455" transform="translate(12.6641 76.2988)" fill="#F1F1F1"/>
<rect width="3.81818" height="3.81818" transform="translate(17.7559 82.6621)" fill="#D4D4D4"/>
<rect width="25.4545" height="3.81818" transform="translate(43.2734 82.6621)" fill="#D4D4D4"/>
<rect width="38.1818" height="3.81818" transform="translate(119.637 82.6621)" fill="#D4D4D4"/>
<rect width="25.4545" height="3.81818" transform="translate(196.002 82.6621)" fill="#D4D4D4"/>
<rect width="25.4545" height="3.81818" transform="translate(259.637 82.6621)" fill="#D4D4D4"/>
<rect width="25.4545" height="3.81818" transform="translate(323.273 82.6621)" fill="#D4D4D4"/>
<rect width="3.81818" height="3.81818" transform="translate(17.7559 99.8438)" fill="#D4D4D4"/>
<circle cx="45.8189" cy="101.752" r="2.54545" fill="#D9D9D9"/>
<rect width="25.4545" height="3.81818" transform="translate(53.4551 99.8438)" fill="#D4D4D4"/>
<rect width="38.1818" height="3.81818" transform="translate(119.637 99.8438)" fill="#D4D4D4"/>
<rect width="25.4545" height="3.81818" transform="translate(196 99.8438)" fill="#D4D4D4"/>
<rect width="25.4545" height="3.81818" transform="translate(259.637 99.8438)" fill="#D4D4D4"/>
<rect width="25.4545" height="3.81818" transform="translate(323.273 96.668)" fill="#D4D4D4"/>
<rect width="38.1818" height="3.81818" transform="translate(323.273 103.02)" fill="#D4D4D4"/>
<rect width="3.81818" height="3.81818" transform="translate(386.91 95.3887)" fill="#D4D4D4"/>
<rect width="3.81818" height="3.81818" transform="translate(17.7559 117.662)" fill="#D4D4D4"/>
<circle cx="45.8189" cy="119.571" r="2.54545" fill="#D9D9D9"/>
<rect width="25.4545" height="3.81818" transform="translate(53.4551 117.662)" fill="#D4D4D4"/>
<rect width="38.1818" height="3.81818" transform="translate(119.637 117.662)" fill="#D4D4D4"/>
<rect width="25.4545" height="3.81818" transform="translate(196 117.662)" fill="#D4D4D4"/>
<rect width="25.4545" height="3.81818" transform="translate(259.637 117.662)" fill="#D4D4D4"/>
<rect width="25.4545" height="3.81818" transform="translate(323.273 114.486)" fill="#D4D4D4"/>
<rect width="38.1818" height="3.81818" transform="translate(323.273 120.838)" fill="#D4D4D4"/>
<rect width="3.81818" height="3.81818" transform="translate(386.91 113.207)" fill="#D4D4D4"/>
<rect width="3.81818" height="3.81818" transform="translate(17.7559 135.48)" fill="#D4D4D4"/>
<circle cx="45.8189" cy="137.389" r="2.54545" fill="#D9D9D9"/>
<rect width="25.4545" height="3.81818" transform="translate(53.4551 135.48)" fill="#D4D4D4"/>
<rect width="38.1818" height="3.81818" transform="translate(119.637 135.48)" fill="#D4D4D4"/>
<rect width="25.4545" height="3.81818" transform="translate(196 135.48)" fill="#D4D4D4"/>
<rect width="25.4545" height="3.81818" transform="translate(259.637 135.48)" fill="#D4D4D4"/>
<rect width="25.4545" height="3.81818" transform="translate(323.273 132.305)" fill="#D4D4D4"/>
<rect width="38.1818" height="3.81818" transform="translate(323.273 138.656)" fill="#D4D4D4"/>
<rect width="3.81818" height="3.81818" transform="translate(386.91 131.025)" fill="#D4D4D4"/>
<rect width="3.81818" height="3.81818" transform="translate(17.7559 153.299)" fill="#D4D4D4"/>
<circle cx="45.8189" cy="155.208" r="2.54545" fill="#D9D9D9"/>
<rect width="25.4545" height="3.81818" transform="translate(53.4551 153.299)" fill="#D4D4D4"/>
<rect width="38.1818" height="3.81818" transform="translate(119.637 153.299)" fill="#D4D4D4"/>
<rect width="25.4545" height="3.81818" transform="translate(196 153.299)" fill="#D4D4D4"/>
<rect width="25.4545" height="3.81818" transform="translate(259.637 153.299)" fill="#D4D4D4"/>
<rect width="25.4545" height="3.81818" transform="translate(323.273 150.123)" fill="#D4D4D4"/>
<rect width="38.1818" height="3.81818" transform="translate(323.273 156.475)" fill="#D4D4D4"/>
<rect width="3.81818" height="3.81818" transform="translate(386.91 148.844)" fill="#D4D4D4"/>
<rect width="3.81818" height="3.81818" transform="translate(17.7559 171.117)" fill="#D4D4D4"/>
<circle cx="45.8189" cy="173.026" r="2.54545" fill="#D9D9D9"/>
<rect width="25.4545" height="3.81818" transform="translate(53.4551 171.117)" fill="#D4D4D4"/>
<rect width="38.1818" height="3.81818" transform="translate(119.637 171.117)" fill="#D4D4D4"/>
<rect width="25.4545" height="3.81818" transform="translate(196.002 171.117)" fill="#D4D4D4"/>
<rect width="25.4545" height="3.81818" transform="translate(259.637 171.117)" fill="#D4D4D4"/>
<rect width="25.4545" height="3.81818" transform="translate(323.273 167.941)" fill="#D4D4D4"/>
<rect width="38.1818" height="3.81818" transform="translate(323.273 174.293)" fill="#D4D4D4"/>
<rect width="3.81818" height="3.81818" transform="translate(386.91 166.662)" fill="#D4D4D4"/>
<rect width="3.81818" height="3.81818" transform="translate(17.7559 188.936)" fill="#D4D4D4"/>
<circle cx="45.8189" cy="190.844" r="2.54545" fill="#D9D9D9"/>
<rect width="25.4545" height="3.81818" transform="translate(53.4551 188.936)" fill="#D4D4D4"/>
<rect width="38.1818" height="3.81818" transform="translate(119.637 188.936)" fill="#D4D4D4"/>
<rect width="25.4545" height="3.81818" transform="translate(196.002 188.936)" fill="#D4D4D4"/>
<rect width="25.4545" height="3.81818" transform="translate(259.637 188.936)" fill="#D4D4D4"/>
<rect width="25.4545" height="3.81818" transform="translate(323.273 185.76)" fill="#D4D4D4"/>
<rect width="38.1818" height="3.81818" transform="translate(323.273 192.111)" fill="#D4D4D4"/>
<rect width="3.81818" height="3.81818" transform="translate(386.91 184.48)" fill="#D4D4D4"/>
<rect width="3.81818" height="3.81818" transform="translate(17.7559 206.754)" fill="#D4D4D4"/>
<circle cx="45.8189" cy="208.663" r="2.54545" fill="#D9D9D9"/>
<rect width="25.4545" height="3.81818" transform="translate(53.4551 206.754)" fill="#D4D4D4"/>
<rect width="38.1818" height="3.81818" transform="translate(119.637 206.754)" fill="#D4D4D4"/>
<rect width="25.4545" height="3.81818" transform="translate(196.002 206.754)" fill="#D4D4D4"/>
<rect width="25.4545" height="3.81818" transform="translate(259.637 206.754)" fill="#D4D4D4"/>
<rect width="25.4545" height="3.81818" transform="translate(323.273 203.578)" fill="#D4D4D4"/>
<rect width="38.1818" height="3.81818" transform="translate(323.273 209.93)" fill="#D4D4D4"/>
<rect width="3.81818" height="3.81818" transform="translate(386.91 202.299)" fill="#D4D4D4"/>
<rect width="3.81818" height="3.81818" transform="translate(17.7559 224.572)" fill="#D4D4D4"/>
<circle cx="45.8189" cy="226.481" r="2.54545" fill="#D9D9D9"/>
<rect width="25.4545" height="3.81818" transform="translate(53.4551 224.572)" fill="#D4D4D4"/>
<rect width="38.1818" height="3.81818" transform="translate(119.637 224.572)" fill="#D4D4D4"/>
<rect width="25.4545" height="3.81818" transform="translate(196.002 224.572)" fill="#D4D4D4"/>
<rect width="25.4545" height="3.81818" transform="translate(259.637 224.572)" fill="#D4D4D4"/>
<rect width="25.4545" height="3.81818" transform="translate(323.273 221.396)" fill="#D4D4D4"/>
<rect width="38.1818" height="3.81818" transform="translate(323.273 227.748)" fill="#D4D4D4"/>
<rect width="3.81818" height="3.81818" transform="translate(386.91 220.117)" fill="#D4D4D4"/>
<rect width="3.81818" height="3.81818" transform="translate(17.7559 242.391)" fill="#D4D4D4"/>
<circle cx="45.8189" cy="244.299" r="2.54545" fill="#D9D9D9"/>
<rect width="25.4545" height="3.81818" transform="translate(53.4551 242.391)" fill="#D4D4D4"/>
<rect width="38.1818" height="3.81818" transform="translate(119.637 242.391)" fill="#D4D4D4"/>
<rect width="25.4545" height="3.81818" transform="translate(196.002 242.391)" fill="#D4D4D4"/>
<rect width="25.4545" height="3.81818" transform="translate(259.637 242.391)" fill="#D4D4D4"/>
<rect width="25.4545" height="3.81818" transform="translate(323.273 239.215)" fill="#D4D4D4"/>
<rect width="38.1818" height="3.81818" transform="translate(323.273 245.566)" fill="#D4D4D4"/>
<rect width="3.81818" height="3.81818" transform="translate(386.91 237.936)" fill="#D4D4D4"/>
<rect width="3.81818" height="3.81818" transform="translate(17.7559 260.207)" fill="#D4D4D4"/>
<circle cx="45.8189" cy="262.116" r="2.54545" fill="#D9D9D9"/>
<rect width="25.4545" height="3.81818" transform="translate(53.4551 260.207)" fill="#D4D4D4"/>
<rect width="38.1818" height="3.81818" transform="translate(119.637 260.207)" fill="#D4D4D4"/>
<rect width="25.4545" height="3.81818" transform="translate(196.002 260.207)" fill="#D4D4D4"/>
<rect width="25.4545" height="3.81818" transform="translate(259.637 260.207)" fill="#D4D4D4"/>
<rect width="25.4545" height="3.81818" transform="translate(323.273 255.752)" fill="#D4D4D4"/>
<rect width="38.1818" height="3.81818" transform="translate(323.273 262.104)" fill="#D4D4D4"/>
<rect width="3.81818" height="3.81818" transform="translate(386.91 255.752)" fill="#D4D4D4"/>
<rect width="3.81818" height="3.81818" transform="translate(17.7559 278.025)" fill="#D4D4D4"/>
<circle cx="45.8189" cy="279.934" r="2.54545" fill="#D9D9D9"/>
<rect width="25.4545" height="3.81818" transform="translate(53.4551 278.025)" fill="#D4D4D4"/>
<rect width="38.1818" height="3.81818" transform="translate(119.637 278.025)" fill="#D4D4D4"/>
<rect width="25.4545" height="3.81818" transform="translate(196.002 278.025)" fill="#D4D4D4"/>
<rect width="25.4545" height="3.81818" transform="translate(259.637 278.025)" fill="#D4D4D4"/>
<rect width="25.4545" height="3.81818" transform="translate(323.273 274.85)" fill="#D4D4D4"/>
<rect width="38.1818" height="3.81818" transform="translate(323.273 281.201)" fill="#D4D4D4"/>
<rect width="3.81818" height="3.81818" transform="translate(386.91 273.57)" fill="#D4D4D4"/>
<rect width="3.81818" height="3.81818" transform="translate(17.7559 295.844)" fill="#D4D4D4"/>
<circle cx="45.8189" cy="297.752" r="2.54545" fill="#D9D9D9"/>
<rect width="25.4545" height="3.81818" transform="translate(53.4551 295.844)" fill="#D4D4D4"/>
<rect width="38.1818" height="3.81818" transform="translate(119.637 295.844)" fill="#D4D4D4"/>
<rect width="25.4545" height="3.81818" transform="translate(196.002 295.844)" fill="#D4D4D4"/>
<rect width="25.4545" height="3.81818" transform="translate(259.637 295.844)" fill="#D4D4D4"/>
<rect width="25.4545" height="3.81818" transform="translate(323.273 292.668)" fill="#D4D4D4"/>
<rect width="38.1818" height="3.81818" transform="translate(323.273 299.02)" fill="#D4D4D4"/>
<rect width="3.81818" height="3.81818" transform="translate(386.91 291.389)" fill="#D4D4D4"/>
<rect width="3.81818" height="3.81818" transform="translate(17.7559 313.662)" fill="#D4D4D4"/>
<circle cx="45.8189" cy="315.571" r="2.54545" fill="#D9D9D9"/>
<rect width="25.4545" height="3.81818" transform="translate(53.4551 313.662)" fill="#D4D4D4"/>
<rect width="38.1818" height="3.81818" transform="translate(119.637 313.662)" fill="#D4D4D4"/>
<rect width="25.4545" height="3.81818" transform="translate(196.002 313.662)" fill="#D4D4D4"/>
<rect width="25.4545" height="3.81818" transform="translate(259.637 313.662)" fill="#D4D4D4"/>
<rect width="25.4545" height="3.81818" transform="translate(323.273 310.486)" fill="#D4D4D4"/>
<rect width="38.1818" height="3.81818" transform="translate(323.273 316.838)" fill="#D4D4D4"/>
<rect width="3.81818" height="3.81818" transform="translate(386.91 309.207)" fill="#D4D4D4"/>
<rect width="3.81818" height="3.81818" transform="translate(17.7559 331.48)" fill="#D4D4D4"/>
<circle cx="45.8189" cy="333.389" r="2.54545" fill="#D9D9D9"/>
<rect width="25.4545" height="3.81818" transform="translate(53.4551 331.48)" fill="#D4D4D4"/>
<rect width="38.1818" height="3.81818" transform="translate(119.637 331.48)" fill="#D4D4D4"/>
<rect width="25.4545" height="3.81818" transform="translate(196.002 331.48)" fill="#D4D4D4"/>
<rect width="25.4545" height="3.81818" transform="translate(259.637 331.48)" fill="#D4D4D4"/>
<rect width="25.4545" height="3.81818" transform="translate(323.273 328.305)" fill="#D4D4D4"/>
<rect width="38.1818" height="3.81818" transform="translate(323.273 334.656)" fill="#D4D4D4"/>
<rect width="3.81818" height="3.81818" transform="translate(386.91 327.025)" fill="#D4D4D4"/>
<rect width="3.81818" height="3.81818" transform="translate(17.7559 349.299)" fill="#D4D4D4"/>
<circle cx="45.8189" cy="351.208" r="2.54545" fill="#D9D9D9"/>
<rect width="25.4545" height="3.81818" transform="translate(53.4551 349.299)" fill="#D4D4D4"/>
<rect width="38.1818" height="3.81818" transform="translate(119.637 349.299)" fill="#D4D4D4"/>
<rect width="25.4545" height="3.81818" transform="translate(196.002 349.299)" fill="#D4D4D4"/>
<rect width="25.4545" height="3.81818" transform="translate(259.637 349.299)" fill="#D4D4D4"/>
<rect width="25.4545" height="3.81818" transform="translate(323.273 346.123)" fill="#D4D4D4"/>
<rect width="38.1818" height="3.81818" transform="translate(323.273 352.475)" fill="#D4D4D4"/>
<rect width="3.81818" height="3.81818" transform="translate(386.91 344.844)" fill="#D4D4D4"/>
<rect width="3.81818" height="3.81818" transform="translate(17.7559 367.117)" fill="#D4D4D4"/>
<circle cx="45.8189" cy="369.026" r="2.54545" fill="#D9D9D9"/>
<rect width="25.4545" height="3.81818" transform="translate(53.4551 367.117)" fill="#D4D4D4"/>
<rect width="38.1818" height="3.81818" transform="translate(119.637 367.117)" fill="#D4D4D4"/>
<rect width="25.4545" height="3.81818" transform="translate(196.002 367.117)" fill="#D4D4D4"/>
<rect width="25.4545" height="3.81818" transform="translate(259.637 367.117)" fill="#D4D4D4"/>
<rect width="25.4545" height="3.81818" transform="translate(323.273 363.941)" fill="#D4D4D4"/>
<rect width="38.1818" height="3.81818" transform="translate(323.273 370.293)" fill="#D4D4D4"/>
<rect width="3.81818" height="3.81818" transform="translate(386.91 362.662)" fill="#D4D4D4"/>
</svg>
