<svg width="436" height="389" viewBox="0 0 436 389" fill="none" xmlns="http://www.w3.org/2000/svg">
<g filter="url(#filter0_d_2965_11569)">
<rect x="4.64062" y="4.64062" width="420" height="372.782" rx="5.75332" fill="white"/>
<rect x="5.02727" y="5.02727" width="419.227" height="372.009" rx="5.36668" stroke="#CAC4D0" stroke-width="0.77329"/>
<rect x="17.4638" y="17.4638" width="175.955" height="9.86364" stroke="#D4D4D4" stroke-width="0.318182"/>
<rect width="6.36364" height="6.36364" transform="translate(363.613 17.3047)" fill="#D4D4D4"/>
<rect width="6.36364" height="6.36364" transform="translate(377.613 17.3047)" fill="#D4D4D4"/>
<rect width="6.36364" height="6.36364" transform="translate(391.613 17.3047)" fill="#D4D4D4"/>
<rect width="6.36364" height="6.36364" transform="translate(405.613 17.3047)" fill="#D4D4D4"/>
<rect width="63.6364" height="10.1818" transform="translate(17.3047 42.7598)" fill="#D4D4D4"/>
<rect width="25.4545" height="10.1818" transform="translate(386.521 42.7598)" fill="#D4D4D4"/>
<rect width="82.7273" height="28" transform="translate(17.3047 58.0332)" fill="#F1F1F1"/>
<rect width="82.7273" height="28" transform="translate(110.213 58.0332)" fill="#F1F1F1"/>
<rect width="82.7273" height="28" transform="translate(203.123 58.0332)" fill="#F1F1F1"/>
<rect width="82.7273" height="28" transform="translate(296.031 58.0332)" fill="#F1F1F1"/>
<rect width="35.6364" height="28" transform="translate(388.941 58.0332)" fill="url(#paint0_linear_2965_11569)"/>
<rect x="17.4638" y="96.3739" width="21.3182" height="9.86364" fill="white"/>
<rect x="17.4638" y="96.3739" width="21.3182" height="9.86364" stroke="#D4D4D4" stroke-width="0.318182"/>
<rect x="49.2821" y="96.3739" width="21.3182" height="9.86364" fill="white"/>
<rect x="49.2821" y="96.3739" width="21.3182" height="9.86364" stroke="#D4D4D4" stroke-width="0.318182"/>
<rect x="81.1005" y="96.3739" width="21.3182" height="9.86364" fill="white"/>
<rect x="81.1005" y="96.3739" width="21.3182" height="9.86364" stroke="#D4D4D4" stroke-width="0.318182"/>
<rect x="112.919" y="96.3739" width="21.3182" height="9.86364" fill="white"/>
<rect x="112.919" y="96.3739" width="21.3182" height="9.86364" stroke="#D4D4D4" stroke-width="0.318182"/>
<rect x="144.737" y="96.3739" width="21.3182" height="9.86364" fill="white"/>
<rect x="144.737" y="96.3739" width="21.3182" height="9.86364" stroke="#D4D4D4" stroke-width="0.318182"/>
<rect x="390.499" y="96.3739" width="21.3182" height="9.86364" fill="white"/>
<rect x="390.499" y="96.3739" width="21.3182" height="9.86364" stroke="#D4D4D4" stroke-width="0.318182"/>
<rect width="394.672" height="16.5455" transform="translate(17.3047 116.578)" fill="#F1F1F1"/>
<rect width="3.81818" height="3.81818" transform="translate(22.3965 122.941)" fill="#D4D4D4"/>
<rect width="25.4545" height="3.81818" transform="translate(47.9121 122.941)" fill="#D4D4D4"/>
<rect width="38.1818" height="3.81818" transform="translate(124.277 122.941)" fill="#D4D4D4"/>
<rect width="25.4545" height="3.81818" transform="translate(200.643 122.941)" fill="#D4D4D4"/>
<rect width="25.4545" height="3.81818" transform="translate(264.277 122.941)" fill="#D4D4D4"/>
<rect width="25.4545" height="3.81818" transform="translate(327.912 122.941)" fill="#D4D4D4"/>
<rect width="3.81818" height="3.81818" transform="translate(22.3965 140.123)" fill="#D4D4D4"/>
<circle cx="50.4576" cy="142.032" r="2.54545" fill="#D9D9D9"/>
<rect width="25.4545" height="3.81818" transform="translate(58.0957 140.123)" fill="#D4D4D4"/>
<rect width="38.1818" height="3.81818" transform="translate(124.277 140.123)" fill="#D4D4D4"/>
<rect width="25.4545" height="3.81818" transform="translate(200.643 140.123)" fill="#D4D4D4"/>
<rect width="25.4545" height="3.81818" transform="translate(264.277 140.123)" fill="#D4D4D4"/>
<rect width="25.4545" height="3.81818" transform="translate(327.914 136.947)" fill="#D4D4D4"/>
<rect width="38.1818" height="3.81818" transform="translate(327.912 143.299)" fill="#D4D4D4"/>
<rect width="3.81818" height="3.81818" transform="translate(391.551 135.668)" fill="#D4D4D4"/>
<rect width="3.81818" height="3.81818" transform="translate(22.3965 157.941)" fill="#D4D4D4"/>
<circle cx="50.4595" cy="159.85" r="2.54545" fill="#D9D9D9"/>
<rect width="25.4545" height="3.81818" transform="translate(58.0957 157.941)" fill="#D4D4D4"/>
<rect width="38.1818" height="3.81818" transform="translate(124.277 157.941)" fill="#D4D4D4"/>
<rect width="25.4545" height="3.81818" transform="translate(200.643 157.941)" fill="#D4D4D4"/>
<rect width="25.4545" height="3.81818" transform="translate(264.277 157.941)" fill="#D4D4D4"/>
<rect width="25.4545" height="3.81818" transform="translate(327.914 154.766)" fill="#D4D4D4"/>
<rect width="38.1818" height="3.81818" transform="translate(327.914 161.117)" fill="#D4D4D4"/>
<rect width="3.81818" height="3.81818" transform="translate(391.551 153.486)" fill="#D4D4D4"/>
<rect width="3.81818" height="3.81818" transform="translate(22.3965 175.76)" fill="#D4D4D4"/>
<circle cx="50.4595" cy="177.669" r="2.54545" fill="#D9D9D9"/>
<rect width="25.4545" height="3.81818" transform="translate(58.0957 175.76)" fill="#D4D4D4"/>
<rect width="38.1818" height="3.81818" transform="translate(124.277 175.76)" fill="#D4D4D4"/>
<rect width="25.4545" height="3.81818" transform="translate(200.643 175.76)" fill="#D4D4D4"/>
<rect width="25.4545" height="3.81818" transform="translate(264.277 175.76)" fill="#D4D4D4"/>
<rect width="25.4545" height="3.81818" transform="translate(327.914 172.584)" fill="#D4D4D4"/>
<rect width="38.1818" height="3.81818" transform="translate(327.914 178.936)" fill="#D4D4D4"/>
<rect width="3.81818" height="3.81818" transform="translate(391.551 171.305)" fill="#D4D4D4"/>
<rect width="3.81818" height="3.81818" transform="translate(22.3965 193.578)" fill="#D4D4D4"/>
<circle cx="50.4576" cy="195.487" r="2.54545" fill="#D9D9D9"/>
<rect width="25.4545" height="3.81818" transform="translate(58.0957 193.578)" fill="#D4D4D4"/>
<rect width="38.1818" height="3.81818" transform="translate(124.277 193.578)" fill="#D4D4D4"/>
<rect width="25.4545" height="3.81818" transform="translate(200.643 193.578)" fill="#D4D4D4"/>
<rect width="25.4545" height="3.81818" transform="translate(264.277 193.578)" fill="#D4D4D4"/>
<rect width="25.4545" height="3.81818" transform="translate(327.912 190.402)" fill="#D4D4D4"/>
<rect width="38.1818" height="3.81818" transform="translate(327.912 196.754)" fill="#D4D4D4"/>
<rect width="3.81818" height="3.81818" transform="translate(391.551 189.123)" fill="#D4D4D4"/>
<rect width="3.81818" height="3.81818" transform="translate(22.3965 211.396)" fill="#D4D4D4"/>
<circle cx="50.4595" cy="213.305" r="2.54545" fill="#D9D9D9"/>
<rect width="25.4545" height="3.81818" transform="translate(58.0957 211.396)" fill="#D4D4D4"/>
<rect width="38.1818" height="3.81818" transform="translate(124.277 211.396)" fill="#D4D4D4"/>
<rect width="25.4545" height="3.81818" transform="translate(200.643 211.396)" fill="#D4D4D4"/>
<rect width="25.4545" height="3.81818" transform="translate(264.277 211.396)" fill="#D4D4D4"/>
<rect width="25.4545" height="3.81818" transform="translate(327.914 208.221)" fill="#D4D4D4"/>
<rect width="38.1818" height="3.81818" transform="translate(327.914 214.572)" fill="#D4D4D4"/>
<rect width="3.81818" height="3.81818" transform="translate(391.551 206.941)" fill="#D4D4D4"/>
<rect width="3.81818" height="3.81818" transform="translate(22.3965 229.215)" fill="#D4D4D4"/>
<circle cx="50.4595" cy="231.124" r="2.54545" fill="#D9D9D9"/>
<rect width="25.4545" height="3.81818" transform="translate(58.0957 229.215)" fill="#D4D4D4"/>
<rect width="38.1818" height="3.81818" transform="translate(124.277 229.215)" fill="#D4D4D4"/>
<rect width="25.4545" height="3.81818" transform="translate(200.643 229.215)" fill="#D4D4D4"/>
<rect width="25.4545" height="3.81818" transform="translate(264.277 229.215)" fill="#D4D4D4"/>
<rect width="25.4545" height="3.81818" transform="translate(327.914 226.039)" fill="#D4D4D4"/>
<rect width="38.1818" height="3.81818" transform="translate(327.914 232.391)" fill="#D4D4D4"/>
<rect width="3.81818" height="3.81818" transform="translate(391.551 224.76)" fill="#D4D4D4"/>
<rect width="3.81818" height="3.81818" transform="translate(22.3965 247.033)" fill="#D4D4D4"/>
<circle cx="50.4576" cy="248.942" r="2.54545" fill="#D9D9D9"/>
<rect width="25.4545" height="3.81818" transform="translate(58.0957 247.033)" fill="#D4D4D4"/>
<rect width="38.1818" height="3.81818" transform="translate(124.277 247.033)" fill="#D4D4D4"/>
<rect width="25.4545" height="3.81818" transform="translate(200.643 247.033)" fill="#D4D4D4"/>
<rect width="25.4545" height="3.81818" transform="translate(264.277 247.033)" fill="#D4D4D4"/>
<rect width="25.4545" height="3.81818" transform="translate(327.912 243.857)" fill="#D4D4D4"/>
<rect width="38.1818" height="3.81818" transform="translate(327.912 250.209)" fill="#D4D4D4"/>
<rect width="3.81818" height="3.81818" transform="translate(391.551 242.578)" fill="#D4D4D4"/>
<rect width="3.81818" height="3.81818" transform="translate(22.3965 264.852)" fill="#D4D4D4"/>
<circle cx="50.4595" cy="266.76" r="2.54545" fill="#D9D9D9"/>
<rect width="25.4545" height="3.81818" transform="translate(58.0957 264.852)" fill="#D4D4D4"/>
<rect width="38.1818" height="3.81818" transform="translate(124.277 264.852)" fill="#D4D4D4"/>
<rect width="25.4545" height="3.81818" transform="translate(200.643 264.852)" fill="#D4D4D4"/>
<rect width="25.4545" height="3.81818" transform="translate(264.277 264.852)" fill="#D4D4D4"/>
<rect width="25.4545" height="3.81818" transform="translate(327.914 261.676)" fill="#D4D4D4"/>
<rect width="38.1818" height="3.81818" transform="translate(327.914 268.027)" fill="#D4D4D4"/>
<rect width="3.81818" height="3.81818" transform="translate(391.551 260.396)" fill="#D4D4D4"/>
<rect width="3.81818" height="3.81818" transform="translate(22.3965 282.67)" fill="#D4D4D4"/>
<circle cx="50.4595" cy="284.579" r="2.54545" fill="#D9D9D9"/>
<rect width="25.4545" height="3.81818" transform="translate(58.0957 282.67)" fill="#D4D4D4"/>
<rect width="38.1818" height="3.81818" transform="translate(124.277 282.67)" fill="#D4D4D4"/>
<rect width="25.4545" height="3.81818" transform="translate(200.643 282.67)" fill="#D4D4D4"/>
<rect width="25.4545" height="3.81818" transform="translate(264.277 282.67)" fill="#D4D4D4"/>
<rect width="25.4545" height="3.81818" transform="translate(327.914 279.494)" fill="#D4D4D4"/>
<rect width="38.1818" height="3.81818" transform="translate(327.914 285.846)" fill="#D4D4D4"/>
<rect width="3.81818" height="3.81818" transform="translate(391.551 278.215)" fill="#D4D4D4"/>
<rect width="3.81818" height="3.81818" transform="translate(22.3965 300.486)" fill="#D4D4D4"/>
<circle cx="50.4595" cy="302.395" r="2.54545" fill="#D9D9D9"/>
<rect width="25.4545" height="3.81818" transform="translate(58.0957 300.486)" fill="#D4D4D4"/>
<rect width="38.1818" height="3.81818" transform="translate(124.277 300.486)" fill="#D4D4D4"/>
<rect width="25.4545" height="3.81818" transform="translate(200.643 300.486)" fill="#D4D4D4"/>
<rect width="25.4545" height="3.81818" transform="translate(264.277 300.486)" fill="#D4D4D4"/>
<rect width="25.4545" height="3.81818" transform="translate(327.914 296.031)" fill="#D4D4D4"/>
<rect width="38.1818" height="3.81818" transform="translate(327.914 302.383)" fill="#D4D4D4"/>
<rect width="3.81818" height="3.81818" transform="translate(391.551 296.031)" fill="#D4D4D4"/>
<rect width="3.81818" height="3.81818" transform="translate(22.3965 318.305)" fill="#D4D4D4"/>
<circle cx="50.4595" cy="320.213" r="2.54545" fill="#D9D9D9"/>
<rect width="25.4545" height="3.81818" transform="translate(58.0957 318.305)" fill="#D4D4D4"/>
<rect width="38.1818" height="3.81818" transform="translate(124.277 318.305)" fill="#D4D4D4"/>
<rect width="25.4545" height="3.81818" transform="translate(200.643 318.305)" fill="#D4D4D4"/>
<rect width="25.4545" height="3.81818" transform="translate(264.277 318.305)" fill="#D4D4D4"/>
<rect width="25.4545" height="3.81818" transform="translate(327.914 315.129)" fill="#D4D4D4"/>
<rect width="38.1818" height="3.81818" transform="translate(327.914 321.48)" fill="#D4D4D4"/>
<rect width="3.81818" height="3.81818" transform="translate(391.551 313.85)" fill="#D4D4D4"/>
<rect width="3.81818" height="3.81818" transform="translate(22.3965 336.123)" fill="#D4D4D4"/>
<circle cx="50.4576" cy="338.032" r="2.54545" fill="#D9D9D9"/>
<rect width="25.4545" height="3.81818" transform="translate(58.0957 336.123)" fill="#D4D4D4"/>
<rect width="38.1818" height="3.81818" transform="translate(124.277 336.123)" fill="#D4D4D4"/>
<rect width="25.4545" height="3.81818" transform="translate(200.643 336.123)" fill="#D4D4D4"/>
<rect width="25.4545" height="3.81818" transform="translate(264.277 336.123)" fill="#D4D4D4"/>
<rect width="25.4545" height="3.81818" transform="translate(327.914 332.947)" fill="#D4D4D4"/>
<rect width="38.1818" height="3.81818" transform="translate(327.912 339.299)" fill="#D4D4D4"/>
<rect width="3.81818" height="3.81818" transform="translate(391.551 331.668)" fill="#D4D4D4"/>
<rect width="3.81818" height="3.81818" transform="translate(22.3965 353.941)" fill="#D4D4D4"/>
<circle cx="50.4595" cy="355.85" r="2.54545" fill="#D9D9D9"/>
<rect width="25.4545" height="3.81818" transform="translate(58.0957 353.941)" fill="#D4D4D4"/>
<rect width="38.1818" height="3.81818" transform="translate(124.277 353.941)" fill="#D4D4D4"/>
<rect width="25.4545" height="3.81818" transform="translate(200.643 353.941)" fill="#D4D4D4"/>
<rect width="25.4545" height="3.81818" transform="translate(264.277 353.941)" fill="#D4D4D4"/>
<rect width="25.4545" height="3.81818" transform="translate(327.914 350.766)" fill="#D4D4D4"/>
<rect width="38.1818" height="3.81818" transform="translate(327.914 357.117)" fill="#D4D4D4"/>
<rect width="3.81818" height="3.81818" transform="translate(391.551 349.486)" fill="#D4D4D4"/>
</g>
<defs>
<filter id="filter0_d_2965_11569" x="0.000884533" y="0.000884533" width="435.466" height="388.249" filterUnits="userSpaceOnUse" color-interpolation-filters="sRGB">
<feFlood flood-opacity="0" result="BackgroundImageFix"/>
<feColorMatrix in="SourceAlpha" type="matrix" values="0 0 0 0 0 0 0 0 0 0 0 0 0 0 0 0 0 0 127 0" result="hardAlpha"/>
<feOffset dx="3.09316" dy="3.09316"/>
<feGaussianBlur stdDeviation="3.86645"/>
<feComposite in2="hardAlpha" operator="out"/>
<feColorMatrix type="matrix" values="0 0 0 0 0 0 0 0 0 0 0 0 0 0 0 0 0 0 0.1 0"/>
<feBlend mode="normal" in2="BackgroundImageFix" result="effect1_dropShadow_2965_11569"/>
<feBlend mode="normal" in="SourceGraphic" in2="effect1_dropShadow_2965_11569" result="shape"/>
</filter>
<linearGradient id="paint0_linear_2965_11569" x1="17.8182" y1="-8.97977e-07" x2="-9.48207" y2="0.0633869" gradientUnits="userSpaceOnUse">
<stop stop-color="#F1F1F1" stop-opacity="0"/>
<stop offset="1" stop-color="#F1F1F1"/>
</linearGradient>
</defs>
</svg>
