<svg width="436" height="386" viewBox="0 0 436 386" fill="none" xmlns="http://www.w3.org/2000/svg">
<g filter="url(#filter0_d_2964_10746)">
<rect x="4.64062" y="4.64062" width="420" height="370.237" rx="5.75332" fill="white"/>
<rect x="5.02727" y="5.02727" width="419.227" height="369.464" rx="5.36668" stroke="#CAC4D0" stroke-width="0.77329"/>
<rect width="63.6364" height="7.63636" transform="translate(17.3047 17.3047)" fill="#D4D4D4"/>
<rect x="17.4638" y="40.372" width="175.955" height="9.86364" stroke="#D4D4D4" stroke-width="0.318182"/>
<rect x="327.499" y="40.372" width="24.5" height="9.86364" fill="white"/>
<rect x="327.499" y="40.372" width="24.5" height="9.86364" stroke="#D4D4D4" stroke-width="0.318182"/>
<rect x="358.681" y="40.372" width="21.3182" height="9.86364" fill="white"/>
<rect x="358.681" y="40.372" width="21.3182" height="9.86364" stroke="#D4D4D4" stroke-width="0.318182"/>
<rect width="25.4545" height="10.1818" transform="translate(386.521 40.2129)" fill="#D4D4D4"/>
<rect width="394.672" height="16.5455" transform="translate(17.3047 60.5762)" fill="#F1F1F1"/>
<rect width="3.81818" height="3.81818" transform="translate(22.3965 66.9395)" fill="#D4D4D4"/>
<rect width="25.4545" height="3.81818" transform="translate(47.9141 66.9395)" fill="#D4D4D4"/>
<rect width="38.1818" height="3.81818" transform="translate(124.277 66.9395)" fill="#D4D4D4"/>
<rect width="25.4545" height="3.81818" transform="translate(200.643 66.9395)" fill="#D4D4D4"/>
<rect width="25.4545" height="3.81818" transform="translate(264.277 66.9395)" fill="#D4D4D4"/>
<rect width="25.4545" height="3.81818" transform="translate(327.914 66.9395)" fill="#D4D4D4"/>
<rect width="3.81818" height="3.81818" transform="translate(22.3965 84.1211)" fill="#D4D4D4"/>
<circle cx="50.4595" cy="86.0298" r="2.54545" fill="#D9D9D9"/>
<rect width="25.4545" height="3.81818" transform="translate(58.0957 84.1211)" fill="#D4D4D4"/>
<rect width="38.1818" height="3.81818" transform="translate(124.277 84.1211)" fill="#D4D4D4"/>
<rect width="25.4545" height="3.81818" transform="translate(200.643 84.1211)" fill="#D4D4D4"/>
<rect width="25.4545" height="3.81818" transform="translate(264.277 84.1211)" fill="#D4D4D4"/>
<rect width="25.4545" height="3.81818" transform="translate(327.914 80.9453)" fill="#D4D4D4"/>
<rect width="38.1818" height="3.81818" transform="translate(327.914 87.2969)" fill="#D4D4D4"/>
<rect width="3.81818" height="3.81818" transform="translate(391.551 79.666)" fill="#D4D4D4"/>
<rect width="3.81818" height="3.81818" transform="translate(22.3965 101.939)" fill="#D4D4D4"/>
<circle cx="50.4595" cy="103.848" r="2.54545" fill="#D9D9D9"/>
<rect width="25.4545" height="3.81818" transform="translate(58.0957 101.939)" fill="#D4D4D4"/>
<rect width="38.1818" height="3.81818" transform="translate(124.277 101.939)" fill="#D4D4D4"/>
<rect width="25.4545" height="3.81818" transform="translate(200.643 101.939)" fill="#D4D4D4"/>
<rect width="25.4545" height="3.81818" transform="translate(264.277 101.939)" fill="#D4D4D4"/>
<rect width="25.4545" height="3.81818" transform="translate(327.914 98.7637)" fill="#D4D4D4"/>
<rect width="38.1818" height="3.81818" transform="translate(327.914 105.115)" fill="#D4D4D4"/>
<rect width="3.81818" height="3.81818" transform="translate(391.551 97.4844)" fill="#D4D4D4"/>
<rect width="3.81818" height="3.81818" transform="translate(22.3965 119.758)" fill="#D4D4D4"/>
<circle cx="50.4595" cy="121.667" r="2.54545" fill="#D9D9D9"/>
<rect width="25.4545" height="3.81818" transform="translate(58.0957 119.758)" fill="#D4D4D4"/>
<rect width="38.1818" height="3.81818" transform="translate(124.277 119.758)" fill="#D4D4D4"/>
<rect width="25.4545" height="3.81818" transform="translate(200.643 119.758)" fill="#D4D4D4"/>
<rect width="25.4545" height="3.81818" transform="translate(264.277 119.758)" fill="#D4D4D4"/>
<rect width="25.4545" height="3.81818" transform="translate(327.912 116.582)" fill="#D4D4D4"/>
<rect width="38.1818" height="3.81818" transform="translate(327.912 122.934)" fill="#D4D4D4"/>
<rect width="3.81818" height="3.81818" transform="translate(391.551 115.303)" fill="#D4D4D4"/>
<rect width="3.81818" height="3.81818" transform="translate(22.3965 137.576)" fill="#D4D4D4"/>
<circle cx="50.4595" cy="139.485" r="2.54545" fill="#D9D9D9"/>
<rect width="25.4545" height="3.81818" transform="translate(58.0957 137.576)" fill="#D4D4D4"/>
<rect width="38.1818" height="3.81818" transform="translate(124.277 137.576)" fill="#D4D4D4"/>
<rect width="25.4545" height="3.81818" transform="translate(200.643 137.576)" fill="#D4D4D4"/>
<rect width="25.4545" height="3.81818" transform="translate(264.277 137.576)" fill="#D4D4D4"/>
<rect width="25.4545" height="3.81818" transform="translate(327.914 134.4)" fill="#D4D4D4"/>
<rect width="38.1818" height="3.81818" transform="translate(327.914 140.752)" fill="#D4D4D4"/>
<rect width="3.81818" height="3.81818" transform="translate(391.551 133.121)" fill="#D4D4D4"/>
<rect width="3.81818" height="3.81818" transform="translate(22.3965 155.395)" fill="#D4D4D4"/>
<circle cx="50.4595" cy="157.303" r="2.54545" fill="#D9D9D9"/>
<rect width="25.4545" height="3.81818" transform="translate(58.0957 155.395)" fill="#D4D4D4"/>
<rect width="38.1818" height="3.81818" transform="translate(124.277 155.395)" fill="#D4D4D4"/>
<rect width="25.4545" height="3.81818" transform="translate(200.643 155.395)" fill="#D4D4D4"/>
<rect width="25.4545" height="3.81818" transform="translate(264.277 155.395)" fill="#D4D4D4"/>
<rect width="25.4545" height="3.81818" transform="translate(327.914 152.219)" fill="#D4D4D4"/>
<rect width="38.1818" height="3.81818" transform="translate(327.914 158.57)" fill="#D4D4D4"/>
<rect width="3.81818" height="3.81818" transform="translate(391.551 150.939)" fill="#D4D4D4"/>
<rect width="3.81818" height="3.81818" transform="translate(22.3965 173.213)" fill="#D4D4D4"/>
<circle cx="50.4595" cy="175.122" r="2.54545" fill="#D9D9D9"/>
<rect width="25.4545" height="3.81818" transform="translate(58.0957 173.213)" fill="#D4D4D4"/>
<rect width="38.1818" height="3.81818" transform="translate(124.277 173.213)" fill="#D4D4D4"/>
<rect width="25.4545" height="3.81818" transform="translate(200.643 173.213)" fill="#D4D4D4"/>
<rect width="25.4545" height="3.81818" transform="translate(264.277 173.213)" fill="#D4D4D4"/>
<rect width="25.4545" height="3.81818" transform="translate(327.912 170.037)" fill="#D4D4D4"/>
<rect width="38.1818" height="3.81818" transform="translate(327.914 176.389)" fill="#D4D4D4"/>
<rect width="3.81818" height="3.81818" transform="translate(391.551 168.758)" fill="#D4D4D4"/>
<rect width="3.81818" height="3.81818" transform="translate(22.3965 191.031)" fill="#D4D4D4"/>
<circle cx="50.4595" cy="192.94" r="2.54545" fill="#D9D9D9"/>
<rect width="25.4545" height="3.81818" transform="translate(58.0957 191.031)" fill="#D4D4D4"/>
<rect width="38.1818" height="3.81818" transform="translate(124.277 191.031)" fill="#D4D4D4"/>
<rect width="25.4545" height="3.81818" transform="translate(200.643 191.031)" fill="#D4D4D4"/>
<rect width="25.4545" height="3.81818" transform="translate(264.277 191.031)" fill="#D4D4D4"/>
<rect width="25.4545" height="3.81818" transform="translate(327.914 187.855)" fill="#D4D4D4"/>
<rect width="38.1818" height="3.81818" transform="translate(327.914 194.207)" fill="#D4D4D4"/>
<rect width="3.81818" height="3.81818" transform="translate(391.551 186.576)" fill="#D4D4D4"/>
<rect width="3.81818" height="3.81818" transform="translate(22.3965 208.85)" fill="#D4D4D4"/>
<circle cx="50.4576" cy="210.758" r="2.54545" fill="#D9D9D9"/>
<rect width="25.4545" height="3.81818" transform="translate(58.0957 208.85)" fill="#D4D4D4"/>
<rect width="38.1818" height="3.81818" transform="translate(124.277 208.85)" fill="#D4D4D4"/>
<rect width="25.4545" height="3.81818" transform="translate(200.643 208.85)" fill="#D4D4D4"/>
<rect width="25.4545" height="3.81818" transform="translate(264.277 208.85)" fill="#D4D4D4"/>
<rect width="25.4545" height="3.81818" transform="translate(327.914 205.674)" fill="#D4D4D4"/>
<rect width="38.1818" height="3.81818" transform="translate(327.914 212.025)" fill="#D4D4D4"/>
<rect width="3.81818" height="3.81818" transform="translate(391.551 204.395)" fill="#D4D4D4"/>
<rect width="3.81818" height="3.81818" transform="translate(22.3965 226.668)" fill="#D4D4D4"/>
<circle cx="50.4595" cy="228.577" r="2.54545" fill="#D9D9D9"/>
<rect width="25.4545" height="3.81818" transform="translate(58.0957 226.668)" fill="#D4D4D4"/>
<rect width="38.1818" height="3.81818" transform="translate(124.277 226.668)" fill="#D4D4D4"/>
<rect width="25.4545" height="3.81818" transform="translate(200.643 226.668)" fill="#D4D4D4"/>
<rect width="25.4545" height="3.81818" transform="translate(264.277 226.668)" fill="#D4D4D4"/>
<rect width="25.4545" height="3.81818" transform="translate(327.914 223.492)" fill="#D4D4D4"/>
<rect width="38.1818" height="3.81818" transform="translate(327.914 229.844)" fill="#D4D4D4"/>
<rect width="3.81818" height="3.81818" transform="translate(391.551 222.213)" fill="#D4D4D4"/>
<rect width="3.81818" height="3.81818" transform="translate(22.3965 244.484)" fill="#D4D4D4"/>
<circle cx="50.4595" cy="246.393" r="2.54545" fill="#D9D9D9"/>
<rect width="25.4545" height="3.81818" transform="translate(58.0957 244.484)" fill="#D4D4D4"/>
<rect width="38.1818" height="3.81818" transform="translate(124.277 244.484)" fill="#D4D4D4"/>
<rect width="25.4545" height="3.81818" transform="translate(200.643 244.484)" fill="#D4D4D4"/>
<rect width="25.4545" height="3.81818" transform="translate(264.277 244.484)" fill="#D4D4D4"/>
<rect width="25.4545" height="3.81818" transform="translate(327.914 240.029)" fill="#D4D4D4"/>
<rect width="38.1818" height="3.81818" transform="translate(327.914 246.381)" fill="#D4D4D4"/>
<rect width="3.81818" height="3.81818" transform="translate(391.551 240.029)" fill="#D4D4D4"/>
<rect width="3.81818" height="3.81818" transform="translate(22.3965 262.303)" fill="#D4D4D4"/>
<circle cx="50.4576" cy="264.211" r="2.54545" fill="#D9D9D9"/>
<rect width="25.4545" height="3.81818" transform="translate(58.0957 262.303)" fill="#D4D4D4"/>
<rect width="38.1818" height="3.81818" transform="translate(124.277 262.303)" fill="#D4D4D4"/>
<rect width="25.4545" height="3.81818" transform="translate(200.643 262.303)" fill="#D4D4D4"/>
<rect width="25.4545" height="3.81818" transform="translate(264.277 262.303)" fill="#D4D4D4"/>
<rect width="25.4545" height="3.81818" transform="translate(327.912 259.127)" fill="#D4D4D4"/>
<rect width="38.1818" height="3.81818" transform="translate(327.912 265.479)" fill="#D4D4D4"/>
<rect width="3.81818" height="3.81818" transform="translate(391.551 257.848)" fill="#D4D4D4"/>
<rect width="3.81818" height="3.81818" transform="translate(22.3965 280.121)" fill="#D4D4D4"/>
<circle cx="50.4595" cy="282.03" r="2.54545" fill="#D9D9D9"/>
<rect width="25.4545" height="3.81818" transform="translate(58.0957 280.121)" fill="#D4D4D4"/>
<rect width="38.1818" height="3.81818" transform="translate(124.277 280.121)" fill="#D4D4D4"/>
<rect width="25.4545" height="3.81818" transform="translate(200.643 280.121)" fill="#D4D4D4"/>
<rect width="25.4545" height="3.81818" transform="translate(264.277 280.121)" fill="#D4D4D4"/>
<rect width="25.4545" height="3.81818" transform="translate(327.914 276.945)" fill="#D4D4D4"/>
<rect width="38.1818" height="3.81818" transform="translate(327.914 283.297)" fill="#D4D4D4"/>
<rect width="3.81818" height="3.81818" transform="translate(391.551 275.666)" fill="#D4D4D4"/>
<rect width="3.81818" height="3.81818" transform="translate(22.3965 297.939)" fill="#D4D4D4"/>
<circle cx="50.4595" cy="299.848" r="2.54545" fill="#D9D9D9"/>
<rect width="25.4545" height="3.81818" transform="translate(58.0957 297.939)" fill="#D4D4D4"/>
<rect width="38.1818" height="3.81818" transform="translate(124.277 297.939)" fill="#D4D4D4"/>
<rect width="25.4545" height="3.81818" transform="translate(200.643 297.939)" fill="#D4D4D4"/>
<rect width="25.4545" height="3.81818" transform="translate(264.277 297.939)" fill="#D4D4D4"/>
<rect width="25.4545" height="3.81818" transform="translate(327.914 294.764)" fill="#D4D4D4"/>
<rect width="38.1818" height="3.81818" transform="translate(327.914 301.115)" fill="#D4D4D4"/>
<rect width="3.81818" height="3.81818" transform="translate(391.551 293.484)" fill="#D4D4D4"/>
<rect width="3.81818" height="3.81818" transform="translate(22.3965 315.758)" fill="#D4D4D4"/>
<circle cx="50.4595" cy="317.667" r="2.54545" fill="#D9D9D9"/>
<rect width="25.4545" height="3.81818" transform="translate(58.0957 315.758)" fill="#D4D4D4"/>
<rect width="38.1818" height="3.81818" transform="translate(124.277 315.758)" fill="#D4D4D4"/>
<rect width="25.4545" height="3.81818" transform="translate(200.643 315.758)" fill="#D4D4D4"/>
<rect width="25.4545" height="3.81818" transform="translate(264.277 315.758)" fill="#D4D4D4"/>
<rect width="25.4545" height="3.81818" transform="translate(327.912 312.582)" fill="#D4D4D4"/>
<rect width="38.1818" height="3.81818" transform="translate(327.912 318.934)" fill="#D4D4D4"/>
<rect width="3.81818" height="3.81818" transform="translate(391.551 311.303)" fill="#D4D4D4"/>
<rect width="3.81818" height="3.81818" transform="translate(22.3965 333.576)" fill="#D4D4D4"/>
<circle cx="50.4595" cy="335.485" r="2.54545" fill="#D9D9D9"/>
<rect width="25.4545" height="3.81818" transform="translate(58.0957 333.576)" fill="#D4D4D4"/>
<rect width="38.1818" height="3.81818" transform="translate(124.277 333.576)" fill="#D4D4D4"/>
<rect width="25.4545" height="3.81818" transform="translate(200.643 333.576)" fill="#D4D4D4"/>
<rect width="25.4545" height="3.81818" transform="translate(264.277 333.576)" fill="#D4D4D4"/>
<rect width="25.4545" height="3.81818" transform="translate(327.914 330.4)" fill="#D4D4D4"/>
<rect width="38.1818" height="3.81818" transform="translate(327.914 336.752)" fill="#D4D4D4"/>
<rect width="3.81818" height="3.81818" transform="translate(391.551 329.121)" fill="#D4D4D4"/>
<rect width="3.81818" height="3.81818" transform="translate(22.3965 351.395)" fill="#D4D4D4"/>
<circle cx="50.4595" cy="353.303" r="2.54545" fill="#D9D9D9"/>
<rect width="25.4545" height="3.81818" transform="translate(58.0957 351.395)" fill="#D4D4D4"/>
<rect width="38.1818" height="3.81818" transform="translate(124.277 351.395)" fill="#D4D4D4"/>
<rect width="25.4545" height="3.81818" transform="translate(200.643 351.395)" fill="#D4D4D4"/>
<rect width="25.4545" height="3.81818" transform="translate(264.277 351.395)" fill="#D4D4D4"/>
<rect width="25.4545" height="3.81818" transform="translate(327.914 348.219)" fill="#D4D4D4"/>
<rect width="38.1818" height="3.81818" transform="translate(327.914 354.57)" fill="#D4D4D4"/>
<rect width="3.81818" height="3.81818" transform="translate(391.551 346.939)" fill="#D4D4D4"/>
</g>
<defs>
<filter id="filter0_d_2964_10746" x="0.000884533" y="0.000884533" width="435.466" height="385.702" filterUnits="userSpaceOnUse" color-interpolation-filters="sRGB">
<feFlood flood-opacity="0" result="BackgroundImageFix"/>
<feColorMatrix in="SourceAlpha" type="matrix" values="0 0 0 0 0 0 0 0 0 0 0 0 0 0 0 0 0 0 127 0" result="hardAlpha"/>
<feOffset dx="3.09316" dy="3.09316"/>
<feGaussianBlur stdDeviation="3.86645"/>
<feComposite in2="hardAlpha" operator="out"/>
<feColorMatrix type="matrix" values="0 0 0 0 0 0 0 0 0 0 0 0 0 0 0 0 0 0 0.1 0"/>
<feBlend mode="normal" in2="BackgroundImageFix" result="effect1_dropShadow_2964_10746"/>
<feBlend mode="normal" in="SourceGraphic" in2="effect1_dropShadow_2964_10746" result="shape"/>
</filter>
</defs>
</svg>
