<svg width="436" height="389" viewBox="0 0 436 389" fill="none" xmlns="http://www.w3.org/2000/svg">
<g filter="url(#filter0_d_2965_12522)">
<rect x="4.64062" y="4.64062" width="420" height="372.782" rx="5.75332" fill="white"/>
<rect x="5.02727" y="5.02727" width="419.227" height="372.009" rx="5.36668" stroke="#CAC4D0" stroke-width="0.77329"/>
<rect x="17.4638" y="17.4638" width="175.955" height="9.86364" stroke="#D4D4D4" stroke-width="0.318182"/>
<rect width="6.36364" height="6.36364" transform="translate(363.613 17.3047)" fill="#D4D4D4"/>
<rect width="6.36364" height="6.36364" transform="translate(377.613 17.3047)" fill="#D4D4D4"/>
<rect width="6.36364" height="6.36364" transform="translate(391.613 17.3047)" fill="#D4D4D4"/>
<rect width="6.36364" height="6.36364" transform="translate(405.613 17.3047)" fill="#D4D4D4"/>
<rect width="63.6364" height="10.1818" transform="translate(17.3047 42.7598)" fill="#D4D4D4"/>
<rect x="390.658" y="43.0779" width="21" height="9.54545" fill="white"/>
<rect x="390.658" y="43.0779" width="21" height="9.54545" stroke="#D4D4D4" stroke-width="0.636364"/>
<rect width="306.091" height="16.5455" transform="translate(17.3047 63.123)" fill="#F1F1F1"/>
<rect width="3.81818" height="3.81818" transform="translate(22.3965 69.4863)" fill="#D4D4D4"/>
<rect width="25.4545" height="3.81818" transform="translate(41.8047 69.4863)" fill="#D4D4D4"/>
<rect width="25.4545" height="3.81818" transform="translate(118.17 69.4863)" fill="#D4D4D4"/>
<rect width="25.4545" height="3.81818" transform="translate(181.805 69.4863)" fill="#D4D4D4"/>
<rect width="25.4545" height="3.81818" transform="translate(245.441 69.4863)" fill="#D4D4D4"/>
<rect width="3.81818" height="3.81818" transform="translate(22.3965 86.668)" fill="#D4D4D4"/>
<circle cx="44.3501" cy="88.5767" r="2.54545" fill="#D9D9D9"/>
<rect width="25.4545" height="3.81818" transform="translate(51.9863 86.668)" fill="#D4D4D4"/>
<rect width="25.4545" height="3.81818" transform="translate(118.17 86.668)" fill="#D4D4D4"/>
<rect width="25.4545" height="3.81818" transform="translate(181.805 86.668)" fill="#D4D4D4"/>
<rect width="25.4545" height="3.81818" transform="translate(245.441 83.4922)" fill="#D4D4D4"/>
<rect width="38.1818" height="3.81818" transform="translate(245.441 89.8438)" fill="#D4D4D4"/>
<rect width="3.81818" height="3.81818" transform="translate(309.078 82.2129)" fill="#D4D4D4"/>
<rect width="3.81818" height="3.81818" transform="translate(22.3965 104.486)" fill="#D4D4D4"/>
<circle cx="44.3501" cy="106.395" r="2.54545" fill="#D9D9D9"/>
<rect width="25.4545" height="3.81818" transform="translate(51.9863 104.486)" fill="#D4D4D4"/>
<rect width="25.4545" height="3.81818" transform="translate(118.17 104.486)" fill="#D4D4D4"/>
<rect width="25.4545" height="3.81818" transform="translate(181.805 104.486)" fill="#D4D4D4"/>
<rect width="25.4545" height="3.81818" transform="translate(245.441 101.311)" fill="#D4D4D4"/>
<rect width="38.1818" height="3.81818" transform="translate(245.441 107.662)" fill="#D4D4D4"/>
<rect width="3.81818" height="3.81818" transform="translate(309.078 100.031)" fill="#D4D4D4"/>
<rect width="3.81818" height="3.81818" transform="translate(22.3965 122.305)" fill="#D4D4D4"/>
<circle cx="44.3501" cy="124.213" r="2.54545" fill="#D9D9D9"/>
<rect width="25.4545" height="3.81818" transform="translate(51.9863 122.305)" fill="#D4D4D4"/>
<rect width="25.4545" height="3.81818" transform="translate(118.17 122.305)" fill="#D4D4D4"/>
<rect width="25.4545" height="3.81818" transform="translate(181.805 122.305)" fill="#D4D4D4"/>
<rect width="25.4545" height="3.81818" transform="translate(245.441 119.129)" fill="#D4D4D4"/>
<rect width="38.1818" height="3.81818" transform="translate(245.441 125.48)" fill="#D4D4D4"/>
<rect width="3.81818" height="3.81818" transform="translate(309.078 117.85)" fill="#D4D4D4"/>
<rect width="3.81818" height="3.81818" transform="translate(22.3965 140.123)" fill="#D4D4D4"/>
<circle cx="44.3501" cy="142.032" r="2.54545" fill="#D9D9D9"/>
<rect width="25.4545" height="3.81818" transform="translate(51.9863 140.123)" fill="#D4D4D4"/>
<rect width="25.4545" height="3.81818" transform="translate(118.17 140.123)" fill="#D4D4D4"/>
<rect width="25.4545" height="3.81818" transform="translate(181.805 140.123)" fill="#D4D4D4"/>
<rect width="25.4545" height="3.81818" transform="translate(245.441 136.947)" fill="#D4D4D4"/>
<rect width="38.1818" height="3.81818" transform="translate(245.441 143.299)" fill="#D4D4D4"/>
<rect width="3.81818" height="3.81818" transform="translate(309.078 135.668)" fill="#D4D4D4"/>
<rect width="3.81818" height="3.81818" transform="translate(22.3965 157.941)" fill="#D4D4D4"/>
<circle cx="44.3501" cy="159.85" r="2.54545" fill="#D9D9D9"/>
<rect width="25.4545" height="3.81818" transform="translate(51.9863 157.941)" fill="#D4D4D4"/>
<rect width="25.4545" height="3.81818" transform="translate(118.17 157.941)" fill="#D4D4D4"/>
<rect width="25.4545" height="3.81818" transform="translate(181.805 157.941)" fill="#D4D4D4"/>
<rect width="25.4545" height="3.81818" transform="translate(245.441 154.766)" fill="#D4D4D4"/>
<rect width="38.1818" height="3.81818" transform="translate(245.441 161.117)" fill="#D4D4D4"/>
<rect width="3.81818" height="3.81818" transform="translate(309.078 153.486)" fill="#D4D4D4"/>
<rect width="3.81818" height="3.81818" transform="translate(22.3965 175.76)" fill="#D4D4D4"/>
<circle cx="44.3501" cy="177.669" r="2.54545" fill="#D9D9D9"/>
<rect width="25.4545" height="3.81818" transform="translate(51.9863 175.76)" fill="#D4D4D4"/>
<rect width="25.4545" height="3.81818" transform="translate(118.17 175.76)" fill="#D4D4D4"/>
<rect width="25.4545" height="3.81818" transform="translate(181.805 175.76)" fill="#D4D4D4"/>
<rect width="25.4545" height="3.81818" transform="translate(245.441 172.584)" fill="#D4D4D4"/>
<rect width="38.1818" height="3.81818" transform="translate(245.441 178.936)" fill="#D4D4D4"/>
<rect width="3.81818" height="3.81818" transform="translate(309.078 171.305)" fill="#D4D4D4"/>
<rect width="3.81818" height="3.81818" transform="translate(22.3965 193.578)" fill="#D4D4D4"/>
<circle cx="44.3501" cy="195.487" r="2.54545" fill="#D9D9D9"/>
<rect width="25.4545" height="3.81818" transform="translate(51.9863 193.578)" fill="#D4D4D4"/>
<rect width="25.4545" height="3.81818" transform="translate(118.17 193.578)" fill="#D4D4D4"/>
<rect width="25.4545" height="3.81818" transform="translate(181.805 193.578)" fill="#D4D4D4"/>
<rect width="25.4545" height="3.81818" transform="translate(245.441 190.402)" fill="#D4D4D4"/>
<rect width="38.1818" height="3.81818" transform="translate(245.441 196.754)" fill="#D4D4D4"/>
<rect width="3.81818" height="3.81818" transform="translate(309.078 189.123)" fill="#D4D4D4"/>
<rect width="3.81818" height="3.81818" transform="translate(22.3965 211.396)" fill="#D4D4D4"/>
<circle cx="44.3501" cy="213.305" r="2.54545" fill="#D9D9D9"/>
<rect width="25.4545" height="3.81818" transform="translate(51.9863 211.396)" fill="#D4D4D4"/>
<rect width="25.4545" height="3.81818" transform="translate(118.17 211.396)" fill="#D4D4D4"/>
<rect width="25.4545" height="3.81818" transform="translate(181.805 211.396)" fill="#D4D4D4"/>
<rect width="25.4545" height="3.81818" transform="translate(245.441 208.221)" fill="#D4D4D4"/>
<rect width="38.1818" height="3.81818" transform="translate(245.441 214.572)" fill="#D4D4D4"/>
<rect width="3.81818" height="3.81818" transform="translate(309.078 206.941)" fill="#D4D4D4"/>
<rect width="3.81818" height="3.81818" transform="translate(22.3965 229.215)" fill="#D4D4D4"/>
<circle cx="44.3501" cy="231.124" r="2.54545" fill="#D9D9D9"/>
<rect width="25.4545" height="3.81818" transform="translate(51.9863 229.215)" fill="#D4D4D4"/>
<rect width="25.4545" height="3.81818" transform="translate(118.17 229.215)" fill="#D4D4D4"/>
<rect width="25.4545" height="3.81818" transform="translate(181.805 229.215)" fill="#D4D4D4"/>
<rect width="25.4545" height="3.81818" transform="translate(245.441 226.039)" fill="#D4D4D4"/>
<rect width="38.1818" height="3.81818" transform="translate(245.441 232.391)" fill="#D4D4D4"/>
<rect width="3.81818" height="3.81818" transform="translate(309.078 224.76)" fill="#D4D4D4"/>
<rect width="3.81818" height="3.81818" transform="translate(22.3965 247.031)" fill="#D4D4D4"/>
<circle cx="44.3501" cy="248.94" r="2.54545" fill="#D9D9D9"/>
<rect width="25.4545" height="3.81818" transform="translate(51.9863 247.031)" fill="#D4D4D4"/>
<rect width="25.4545" height="3.81818" transform="translate(118.17 247.031)" fill="#D4D4D4"/>
<rect width="25.4545" height="3.81818" transform="translate(181.805 247.031)" fill="#D4D4D4"/>
<rect width="25.4545" height="3.81818" transform="translate(245.441 242.576)" fill="#D4D4D4"/>
<rect width="38.1818" height="3.81818" transform="translate(245.441 248.928)" fill="#D4D4D4"/>
<rect width="3.81818" height="3.81818" transform="translate(309.078 242.576)" fill="#D4D4D4"/>
<rect width="3.81818" height="3.81818" transform="translate(22.3965 264.85)" fill="#D4D4D4"/>
<circle cx="44.3501" cy="266.758" r="2.54545" fill="#D9D9D9"/>
<rect width="25.4545" height="3.81818" transform="translate(51.9863 264.85)" fill="#D4D4D4"/>
<rect width="25.4545" height="3.81818" transform="translate(118.17 264.85)" fill="#D4D4D4"/>
<rect width="25.4545" height="3.81818" transform="translate(181.805 264.85)" fill="#D4D4D4"/>
<rect width="25.4545" height="3.81818" transform="translate(245.441 261.674)" fill="#D4D4D4"/>
<rect width="38.1818" height="3.81818" transform="translate(245.441 268.025)" fill="#D4D4D4"/>
<rect width="3.81818" height="3.81818" transform="translate(309.078 260.395)" fill="#D4D4D4"/>
<rect width="3.81818" height="3.81818" transform="translate(22.3965 282.668)" fill="#D4D4D4"/>
<circle cx="44.3501" cy="284.577" r="2.54545" fill="#D9D9D9"/>
<rect width="25.4545" height="3.81818" transform="translate(51.9863 282.668)" fill="#D4D4D4"/>
<rect width="25.4545" height="3.81818" transform="translate(118.17 282.668)" fill="#D4D4D4"/>
<rect width="25.4545" height="3.81818" transform="translate(181.805 282.668)" fill="#D4D4D4"/>
<rect width="25.4545" height="3.81818" transform="translate(245.441 279.492)" fill="#D4D4D4"/>
<rect width="38.1818" height="3.81818" transform="translate(245.441 285.844)" fill="#D4D4D4"/>
<rect width="3.81818" height="3.81818" transform="translate(309.078 278.213)" fill="#D4D4D4"/>
<rect width="3.81818" height="3.81818" transform="translate(22.3965 300.486)" fill="#D4D4D4"/>
<circle cx="44.3501" cy="302.395" r="2.54545" fill="#D9D9D9"/>
<rect width="25.4545" height="3.81818" transform="translate(51.9863 300.486)" fill="#D4D4D4"/>
<rect width="25.4545" height="3.81818" transform="translate(118.17 300.486)" fill="#D4D4D4"/>
<rect width="25.4545" height="3.81818" transform="translate(181.805 300.486)" fill="#D4D4D4"/>
<rect width="25.4545" height="3.81818" transform="translate(245.441 297.311)" fill="#D4D4D4"/>
<rect width="38.1818" height="3.81818" transform="translate(245.441 303.662)" fill="#D4D4D4"/>
<rect width="3.81818" height="3.81818" transform="translate(309.078 296.031)" fill="#D4D4D4"/>
<rect width="3.81818" height="3.81818" transform="translate(22.3965 318.305)" fill="#D4D4D4"/>
<circle cx="44.3501" cy="320.213" r="2.54545" fill="#D9D9D9"/>
<rect width="25.4545" height="3.81818" transform="translate(51.9863 318.305)" fill="#D4D4D4"/>
<rect width="25.4545" height="3.81818" transform="translate(118.17 318.305)" fill="#D4D4D4"/>
<rect width="25.4545" height="3.81818" transform="translate(181.805 318.305)" fill="#D4D4D4"/>
<rect width="25.4545" height="3.81818" transform="translate(245.441 315.129)" fill="#D4D4D4"/>
<rect width="38.1818" height="3.81818" transform="translate(245.441 321.48)" fill="#D4D4D4"/>
<rect width="3.81818" height="3.81818" transform="translate(309.078 313.85)" fill="#D4D4D4"/>
<rect width="3.81818" height="3.81818" transform="translate(22.3965 336.123)" fill="#D4D4D4"/>
<circle cx="44.3501" cy="338.032" r="2.54545" fill="#D9D9D9"/>
<rect width="25.4545" height="3.81818" transform="translate(51.9863 336.123)" fill="#D4D4D4"/>
<rect width="25.4545" height="3.81818" transform="translate(118.17 336.123)" fill="#D4D4D4"/>
<rect width="25.4545" height="3.81818" transform="translate(181.805 336.123)" fill="#D4D4D4"/>
<rect width="25.4545" height="3.81818" transform="translate(245.441 332.947)" fill="#D4D4D4"/>
<rect width="38.1818" height="3.81818" transform="translate(245.441 339.299)" fill="#D4D4D4"/>
<rect width="3.81818" height="3.81818" transform="translate(309.078 331.668)" fill="#D4D4D4"/>
<rect width="3.81818" height="3.81818" transform="translate(22.3965 353.941)" fill="#D4D4D4"/>
<circle cx="44.3501" cy="355.85" r="2.54545" fill="#D9D9D9"/>
<rect width="25.4545" height="3.81818" transform="translate(51.9863 353.941)" fill="#D4D4D4"/>
<rect width="25.4545" height="3.81818" transform="translate(118.17 353.941)" fill="#D4D4D4"/>
<rect width="25.4545" height="3.81818" transform="translate(181.805 353.941)" fill="#D4D4D4"/>
<rect width="25.4545" height="3.81818" transform="translate(245.441 350.766)" fill="#D4D4D4"/>
<rect width="38.1818" height="3.81818" transform="translate(245.441 357.117)" fill="#D4D4D4"/>
<rect width="3.81818" height="3.81818" transform="translate(309.078 349.486)" fill="#D4D4D4"/>
<rect width="31.8182" height="10.1818" transform="translate(333.578 63.123)" fill="#D4D4D4"/>
<rect x="333.896" y="83.8045" width="77.7631" height="218.273" fill="white"/>
<rect x="333.896" y="83.8045" width="77.7631" height="218.273" stroke="#D4D4D4" stroke-width="0.636364"/>
<rect width="25.4545" height="3.81818" transform="translate(339.941 90.4863)" fill="#D4D4D4"/>
<rect width="25.4545" height="1.90909" transform="translate(339.941 109.578)" fill="#D4D4D4"/>
<rect x="340.26" y="114.988" width="65.0358" height="9.54545" fill="white"/>
<rect x="340.26" y="114.988" width="65.0358" height="9.54545" stroke="#D4D4D4" stroke-width="0.636364"/>
<rect width="3.81818" height="3.81818" transform="translate(339.941 137.578)" fill="#D4D4D4"/>
<rect width="25.4545" height="3.81818" transform="translate(348.85 137.578)" fill="#D4D4D4"/>
<rect width="3.81818" height="3.81818" transform="translate(339.941 151.578)" fill="#D4D4D4"/>
<rect width="25.4545" height="3.81818" transform="translate(348.85 151.578)" fill="#D4D4D4"/>
<rect width="3.81818" height="3.81818" transform="translate(339.941 165.578)" fill="#D4D4D4"/>
<rect width="25.4545" height="3.81818" transform="translate(348.85 165.578)" fill="#D4D4D4"/>
<rect width="3.81818" height="3.81818" transform="translate(339.941 179.578)" fill="#D4D4D4"/>
<rect width="25.4545" height="3.81818" transform="translate(348.85 179.578)" fill="#D4D4D4"/>
<rect width="3.81818" height="3.81818" transform="translate(339.941 193.578)" fill="#D4D4D4"/>
<rect width="25.4545" height="3.81818" transform="translate(348.85 193.578)" fill="#D4D4D4"/>
<rect width="3.81818" height="3.81818" transform="translate(339.941 207.578)" fill="#D4D4D4"/>
<rect width="25.4545" height="3.81818" transform="translate(348.85 207.578)" fill="#D4D4D4"/>
<rect width="25.4545" height="1.90909" transform="translate(339.941 229.213)" fill="#D4D4D4"/>
<rect x="340.26" y="234.623" width="65.0358" height="9.54545" fill="white"/>
<rect x="340.26" y="234.623" width="65.0358" height="9.54545" stroke="#D4D4D4" stroke-width="0.636364"/>
<rect width="25.4545" height="1.90909" transform="translate(339.941 254.668)" fill="#D4D4D4"/>
<rect x="340.26" y="260.078" width="65.0358" height="9.54545" fill="white"/>
<rect x="340.26" y="260.078" width="65.0358" height="9.54545" stroke="#D4D4D4" stroke-width="0.636364"/>
<rect width="25.4545" height="1.90909" transform="translate(339.941 280.121)" fill="#D4D4D4"/>
<rect x="340.26" y="285.531" width="65.0358" height="9.54545" fill="white"/>
<rect x="340.26" y="285.531" width="65.0358" height="9.54545" stroke="#D4D4D4" stroke-width="0.636364"/>
</g>
<defs>
<filter id="filter0_d_2965_12522" x="0.000884533" y="0.000884533" width="435.466" height="388.249" filterUnits="userSpaceOnUse" color-interpolation-filters="sRGB">
<feFlood flood-opacity="0" result="BackgroundImageFix"/>
<feColorMatrix in="SourceAlpha" type="matrix" values="0 0 0 0 0 0 0 0 0 0 0 0 0 0 0 0 0 0 127 0" result="hardAlpha"/>
<feOffset dx="3.09316" dy="3.09316"/>
<feGaussianBlur stdDeviation="3.86645"/>
<feComposite in2="hardAlpha" operator="out"/>
<feColorMatrix type="matrix" values="0 0 0 0 0 0 0 0 0 0 0 0 0 0 0 0 0 0 0.1 0"/>
<feBlend mode="normal" in2="BackgroundImageFix" result="effect1_dropShadow_2965_12522"/>
<feBlend mode="normal" in="SourceGraphic" in2="effect1_dropShadow_2965_12522" result="shape"/>
</filter>
</defs>
</svg>
