<svg xmlns="http://www.w3.org/2000/svg" xmlns:xlink="http://www.w3.org/1999/xlink" viewBox="0 0 500 500"><defs><clipPath id="freepik--clip-path--inject-4"><rect x="118.75" y="89.22" width="284.37" height="187.98" style="fill:#fff;stroke:#263238;stroke-linecap:round;stroke-linejoin:round"></rect></clipPath></defs><g id="freepik--Calendar--inject-4"><rect x="118.75" y="89.22" width="284.37" height="187.98" style="fill:#fff"></rect><g style="clip-path:url(#freepik--clip-path--inject-4)"><rect x="118.75" y="89.22" width="284.37" height="187.98" style="fill:#263238"></rect><rect x="118.75" y="89.22" width="284.37" height="187.98" style="fill:#fff;opacity:0.8"></rect></g><rect x="118.75" y="89.22" width="284.37" height="187.98" style="fill:none;stroke:#263238;stroke-linecap:round;stroke-linejoin:round"></rect><rect x="197.48" y="110.18" width="198.37" height="161.27" style="fill:#fff"></rect><rect x="224.9" y="125.16" width="28.76" height="58.4" style="fill:#FFFFFF"></rect><rect x="367.36" y="125.5" width="28.76" height="29.03" style="fill:#FFFFFF"></rect><rect x="281.76" y="125.5" width="28.76" height="29.03" style="fill:#FFFFFF"></rect><rect x="197.22" y="213.1" width="56.35" height="29.03" style="fill:#FFFFFF"></rect><rect x="118.75" y="89.22" width="284.37" height="18.27" style="fill:#263238;stroke:#263238;stroke-linecap:round;stroke-linejoin:round"></rect><rect x="197.48" y="110.18" width="198.37" height="161.27" style="fill:none;stroke:#263238;stroke-linecap:round;stroke-linejoin:round"></rect><line x1="225.36" y1="126.3" x2="225.36" y2="270.91" style="fill:none;stroke:#263238;stroke-linecap:round;stroke-linejoin:round"></line><line x1="253.77" y1="126.3" x2="253.77" y2="270.91" style="fill:none;stroke:#263238;stroke-linecap:round;stroke-linejoin:round"></line><line x1="282.19" y1="126.3" x2="282.19" y2="270.91" style="fill:none;stroke:#263238;stroke-linecap:round;stroke-linejoin:round"></line><line x1="310.6" y1="126.3" x2="310.6" y2="270.91" style="fill:none;stroke:#263238;stroke-linecap:round;stroke-linejoin:round"></line><line x1="339.02" y1="126.3" x2="339.02" y2="270.91" style="fill:none;stroke:#263238;stroke-linecap:round;stroke-linejoin:round"></line><line x1="367.43" y1="126.3" x2="367.43" y2="270.91" style="fill:none;stroke:#263238;stroke-linecap:round;stroke-linejoin:round"></line><line x1="197.48" y1="125.77" x2="395.85" y2="125.77" style="fill:#fff;stroke:#263238;stroke-linecap:round;stroke-linejoin:round"></line><line x1="197.48" y1="154.8" x2="395.85" y2="154.8" style="fill:none;stroke:#263238;stroke-linecap:round;stroke-linejoin:round"></line><line x1="197.48" y1="183.83" x2="395.85" y2="183.83" style="fill:none;stroke:#263238;stroke-linecap:round;stroke-linejoin:round"></line><line x1="197.48" y1="212.86" x2="395.85" y2="212.86" style="fill:none;stroke:#263238;stroke-linecap:round;stroke-linejoin:round"></line><line x1="197.48" y1="241.88" x2="395.85" y2="241.88" style="fill:none;stroke:#263238;stroke-linecap:round;stroke-linejoin:round"></line><circle cx="131.34" cy="119.89" r="1.6" style="opacity:0.28"></circle><circle cx="140.13" cy="119.89" r="1.6" style="opacity:0.28"></circle><circle cx="148.91" cy="119.89" r="1.6" style="opacity:0.28"></circle><path d="M159.3,119.89a1.6,1.6,0,1,1-1.6-1.59A1.6,1.6,0,0,1,159.3,119.89Z" style="opacity:0.28"></path><circle cx="166.48" cy="119.89" r="1.6" style="opacity:0.28"></circle><circle cx="175.27" cy="119.89" r="1.6" style="opacity:0.28"></circle><circle cx="184.06" cy="119.89" r="1.6" style="opacity:0.28"></circle><circle cx="131.34" cy="127.93" r="1.6" style="opacity:0.28"></circle><circle cx="140.13" cy="127.93" r="1.6" style="opacity:0.28"></circle><circle cx="148.91" cy="127.93" r="1.6" style="opacity:0.28"></circle><path d="M159.3,127.93a1.6,1.6,0,1,1-1.6-1.59A1.6,1.6,0,0,1,159.3,127.93Z" style="opacity:0.28"></path><circle cx="166.48" cy="127.93" r="1.6" style="opacity:0.28"></circle><circle cx="175.27" cy="127.93" r="1.6" style="opacity:0.28"></circle><circle cx="184.06" cy="127.93" r="1.6" style="opacity:0.28"></circle><circle cx="131.34" cy="135.97" r="1.6" style="opacity:0.28"></circle><circle cx="140.13" cy="135.97" r="1.6" style="opacity:0.28"></circle><circle cx="148.91" cy="135.97" r="1.6" style="opacity:0.28"></circle><path d="M159.3,136a1.6,1.6,0,1,1-1.6-1.6A1.6,1.6,0,0,1,159.3,136Z" style="opacity:0.28"></path><circle cx="166.48" cy="135.97" r="1.6" style="opacity:0.28"></circle><circle cx="175.27" cy="135.97" r="1.6" style="opacity:0.28"></circle><circle cx="184.06" cy="135.97" r="1.6" style="opacity:0.28"></circle><path d="M132.94,144a1.6,1.6,0,1,1-1.6-1.6A1.6,1.6,0,0,1,132.94,144Z" style="opacity:0.28"></path><path d="M141.73,144a1.6,1.6,0,1,1-1.6-1.6A1.6,1.6,0,0,1,141.73,144Z" style="opacity:0.28"></path><path d="M150.51,144a1.6,1.6,0,1,1-1.6-1.6A1.6,1.6,0,0,1,150.51,144Z" style="opacity:0.28"></path><path d="M159.3,144a1.6,1.6,0,1,1-1.6-1.6A1.6,1.6,0,0,1,159.3,144Z" style="opacity:0.28"></path><path d="M168.08,144a1.6,1.6,0,1,1-1.6-1.6A1.6,1.6,0,0,1,168.08,144Z" style="opacity:0.28"></path><path d="M176.87,144a1.6,1.6,0,1,1-1.6-1.6A1.6,1.6,0,0,1,176.87,144Z" style="opacity:0.28"></path><path d="M185.65,144a1.6,1.6,0,1,1-1.59-1.6A1.6,1.6,0,0,1,185.65,144Z" style="opacity:0.28"></path><path d="M132.94,152.05a1.6,1.6,0,1,1-1.6-1.6A1.6,1.6,0,0,1,132.94,152.05Z" style="opacity:0.28"></path><path d="M141.73,152.05a1.6,1.6,0,1,1-1.6-1.6A1.6,1.6,0,0,1,141.73,152.05Z" style="opacity:0.28"></path><path d="M150.51,152.05a1.6,1.6,0,1,1-1.6-1.6A1.59,1.59,0,0,1,150.51,152.05Z" style="opacity:0.28"></path><path d="M159.3,152.05a1.6,1.6,0,1,1-1.6-1.6A1.6,1.6,0,0,1,159.3,152.05Z" style="opacity:0.28"></path><path d="M168.08,152.05a1.6,1.6,0,1,1-1.6-1.6A1.59,1.59,0,0,1,168.08,152.05Z" style="opacity:0.28"></path><path d="M176.87,152.05a1.6,1.6,0,1,1-1.6-1.6A1.6,1.6,0,0,1,176.87,152.05Z" style="opacity:0.28"></path><path d="M185.65,152.05a1.6,1.6,0,1,1-1.59-1.6A1.59,1.59,0,0,1,185.65,152.05Z" style="opacity:0.28"></path><path d="M132.94,160.09a1.6,1.6,0,1,1-1.6-1.6A1.6,1.6,0,0,1,132.94,160.09Z" style="opacity:0.28"></path><path d="M141.73,160.09a1.6,1.6,0,1,1-1.6-1.6A1.6,1.6,0,0,1,141.73,160.09Z" style="opacity:0.28"></path><path d="M150.51,160.09a1.6,1.6,0,1,1-1.6-1.6A1.59,1.59,0,0,1,150.51,160.09Z" style="opacity:0.28"></path><path d="M159.3,160.09a1.6,1.6,0,1,1-1.6-1.6A1.6,1.6,0,0,1,159.3,160.09Z" style="opacity:0.28"></path><path d="M168.08,160.09a1.6,1.6,0,1,1-1.6-1.6A1.59,1.59,0,0,1,168.08,160.09Z" style="opacity:0.28"></path><path d="M176.87,160.09a1.6,1.6,0,1,1-1.6-1.6A1.6,1.6,0,0,1,176.87,160.09Z" style="opacity:0.28"></path><path d="M185.65,160.09a1.6,1.6,0,1,1-1.59-1.6A1.59,1.59,0,0,1,185.65,160.09Z" style="opacity:0.28"></path><line x1="129.85" y1="177.93" x2="154.4" y2="177.93" style="fill:none;stroke:#263238;stroke-linecap:round;stroke-linejoin:round"></line><line x1="129.85" y1="194.51" x2="154.4" y2="194.51" style="fill:none;stroke:#263238;stroke-linecap:round;stroke-linejoin:round"></line><line x1="129.85" y1="211.09" x2="154.4" y2="211.09" style="fill:none;stroke:#263238;stroke-linecap:round;stroke-linejoin:round"></line></g><g id="freepik--Character--inject-4"><path d="M326.44,137s-3,7.88-2.39,8.93,2.18,3.67,1.34,5.77-4.17,2.46-3.75,4.14,2.73,2.94,2.73,2.94,2.49,11.19,3.54,12.66,6.72.63,6.72.63l.42,5.67,16.81-1.05-.63-10.08-.84-31.08Z" style="fill:#fff;stroke:#263238;stroke-linecap:round;stroke-linejoin:round"></path><path d="M357.53,133.4a11.62,11.62,0,0,0-8.45-4.84v0s-4.29-3.67-8.57-3.67-6.11,2.14-8.86,2.14-4.59-3.36-9.18,1.53,1.23,10.09,1.23,10.09a5.27,5.27,0,0,0,4.54,1.6c-.19.93-.58,3-.74,4.53-.21,2.1,3.57,4.41,3.57,4.41a15.55,15.55,0,0,0,.21,4.2c.42,1.05,1.47,1.26,2.1.42s1.05-4.83,1.68-3.15,3.15,14.28,4.83,15.75,9.25.63,11.35.21,6.09-9.24,8-14.49S360.26,137.6,357.53,133.4Z" style="fill:#263238;stroke:#263238;stroke-linecap:round;stroke-linejoin:round"></path><path d="M333.25,150.52a53.8,53.8,0,0,1,.51,5.89c0,2.31-1.54,3.59-.51,4.62s1.79.51,2.56-1.29a15.2,15.2,0,0,0,1-6.66C336.58,151.29,336.32,147.44,333.25,150.52Z" style="fill:#fff;stroke:#263238;stroke-linecap:round;stroke-linejoin:round"></path><path d="M316.15,268.51s-5.25,35-9.3,69.48-3.55,82.6-3.55,82.6l10.68-.06s12.12-67.34,14.66-74.94,11.15-39.53,11.15-39.53,4.56,36.49,6.08,39S368,421,368,421l11.16-.14-11-79.28-6.09-73Z" style="fill:#263238;stroke:#263238;stroke-linecap:round;stroke-linejoin:round"></path><polyline points="359.42 294.12 344.51 299.77 339.79 306.06" style="fill:none;stroke:#fff;stroke-linecap:round;stroke-linejoin:round;stroke-width:0.75px"></polyline><line x1="323.55" y1="277.6" x2="336.85" y2="277.6" style="fill:none;stroke:#fff;stroke-linecap:round;stroke-linejoin:round;stroke-width:0.75px"></line><line x1="361.03" y1="277.6" x2="355.79" y2="277.6" style="fill:none;stroke:#fff;stroke-linecap:round;stroke-linejoin:round;stroke-width:0.75px"></line><path d="M302.73,421l-1.85,2.56s-15.38,6.27-15.38,6.84-.14,1,1.14,1h19.79l2.14-.71v.71h5.69l.14-10.53Z" style="fill:#263238"></path><path d="M368.08,421l-1.85,2.56s-15.37,6.27-15.37,6.84-.15,1,1.13,1h19.8l2.13-.71v.71h5.7l.14-10.53Z" style="fill:#263238"></path><path d="M331.06,177.08l-4.62,8.4s11.55-3.36,17.85-3.36a86.4,86.4,0,0,1,13.24,1.26l-3.33-6.81S338.62,173.51,331.06,177.08Z" style="fill:#FFFFFF;stroke:#263238;stroke-linecap:round;stroke-linejoin:round"></path><path d="M374.25,189.51l14.21,57.79a6.11,6.11,0,0,1-5.11,7.51L352.73,259l.73-9.89,15.38-7.32-3.3-16.48S369,189.93,374.25,189.51Z" style="fill:#FFFFFF;stroke:#263238;stroke-linecap:round;stroke-linejoin:round"></path><path d="M327.85,183.12A53.24,53.24,0,0,0,316,187a64.91,64.91,0,0,1-6.3,2.73s5.43,70.41,5.43,74-.21,3.78,1,4.83,7.78,1.53,19.33,1.32,21.84-.06,22.89-.06a5.42,5.42,0,0,0,4.2-2.52c1.26-1.89,11.47-76.9,11.68-77.74s-15.87-5.7-17.35-6.13C348.65,181,337.61,181.08,327.85,183.12Z" style="fill:#FFFFFF;stroke:#263238;stroke-linecap:round;stroke-linejoin:round"></path><path d="M353.58,238a36.19,36.19,0,0,1-4.23,3.29" style="fill:none;stroke:#263238;stroke-linecap:round;stroke-linejoin:round"></path><path d="M369,210.56s-2.92,12.9-11.44,23.19" style="fill:none;stroke:#263238;stroke-linecap:round;stroke-linejoin:round"></path><path d="M370.32,242s3.08,4.32,10.61,4.82" style="fill:none;stroke:#263238;stroke-linecap:round;stroke-linejoin:round"></path><path d="M368.84,241.81a12.18,12.18,0,0,0,6.3,7.24" style="fill:none;stroke:#263238;stroke-linecap:round;stroke-linejoin:round"></path><path d="M309.67,189.7,280,199,250.55,162.3l-5.72,4.77,26.39,50.77a8,8,0,0,0,8.84,4.13L311.54,215S315.42,204.4,309.67,189.7Z" style="fill:#FFFFFF;stroke:#263238;stroke-linecap:round;stroke-linejoin:round"></path><path d="M279.06,200.2s-2.89,3.86-2.57,8" style="fill:none;stroke:#263238;stroke-linecap:round;stroke-linejoin:round"></path><path d="M274.24,203.42s-1.29,5.78,1,9.32" style="fill:none;stroke:#263238;stroke-linecap:round;stroke-linejoin:round"></path><path d="M311.54,215s7.37,8.63,13.15,11.52" style="fill:none;stroke:#263238;stroke-linecap:round;stroke-linejoin:round"></path><path d="M313.44,219.48s4.18,9.65,12.54,14.14" style="fill:none;stroke:#263238;stroke-linecap:round;stroke-linejoin:round"></path><line x1="247.37" y1="172.15" x2="253.73" y2="168.02" style="fill:none;stroke:#263238;stroke-linecap:round;stroke-linejoin:round"></line><path d="M250.55,162.3s2-2.48,2-4.77-1.6-5-.91-6.87,3.66-4.12,1.14-4.81-4.58.69-4.81,2.52,0,2.06,0,2.06-2.75-5.5-4.58-7.33-3.2-3.89-4.35-3.89-2.29.68-1.6,1.83,4.12,6.64,4.12,6.64l.69,2.29s-3.9.23-4.36.92-.22,2.75-1.37,4.12-.92,2.75-.46,4.13,1.83,3.66,2.75,3.66a3.12,3.12,0,0,0,1.6-.46l4.37,4.73Z" style="fill:#fff;stroke:#263238;stroke-linecap:round;stroke-linejoin:round"></path><line x1="240.46" y1="162.34" x2="238.17" y2="158.91" style="fill:none;stroke:#263238;stroke-linecap:round;stroke-linejoin:round"></line></g></svg>