<svg width="285" height="200" viewBox="0 0 285 200" fill="none" xmlns="http://www.w3.org/2000/svg">
<path d="M203.248 36.1875V110.38H90.5V36.1875H203.248Z" stroke="white"/>
<path d="M203.748 35.6875H90V110.88H203.748V35.6875Z" stroke="rgba(255,255,255,0.4)" stroke-width="0.4" stroke-linecap="round" stroke-linejoin="round"/>
<path d="M200.84 44.0723H121.492V108.58H200.84V44.0723Z" stroke="white" stroke-width="0.5"/>
<path d="M132.645 50.5195V108.364" stroke="white" stroke-width="0.4" stroke-linecap="round" stroke-linejoin="round"/>
<path d="M144.008 50.5195V108.364" stroke="white" stroke-width="0.4" stroke-linecap="round" stroke-linejoin="round"/>
<path d="M155.375 50.5195V108.364" stroke="white" stroke-width="0.4" stroke-linecap="round" stroke-linejoin="round"/>
<path d="M166.74 50.5195V108.364" stroke="white" stroke-width="0.4" stroke-linecap="round" stroke-linejoin="round"/>
<path d="M178.107 50.5195V108.364" stroke="rgba(255,255,255,0.4)" stroke-width="0.4" stroke-linecap="round" stroke-linejoin="round"/>
<path d="M189.473 50.5195V108.364" stroke="white" stroke-width="0.4" stroke-linecap="round" stroke-linejoin="round"/>
<path d="M121.492 50.3086H200.84" stroke="white" stroke-width="0.4" stroke-linecap="round" stroke-linejoin="round"/>
<path d="M121.492 61.9199H200.84" stroke="white" stroke-width="0.4" stroke-linecap="round" stroke-linejoin="round"/>
<path d="M121.492 73.5312H200.84" stroke="white" stroke-width="0.4" stroke-linecap="round" stroke-linejoin="round"/>
<path d="M121.492 85.1445H200.84" stroke="white" stroke-width="0.4" stroke-linecap="round" stroke-linejoin="round"/>
<path d="M121.492 96.752H200.84" stroke="white" stroke-width="0.4" stroke-linecap="round" stroke-linejoin="round"/>
<path opacity="0.28" d="M95.0365 48.5964C95.3899 48.5964 95.6765 48.3099 95.6765 47.9564C95.6765 47.6029 95.3899 47.3164 95.0365 47.3164C94.683 47.3164 94.3965 47.6029 94.3965 47.9564C94.3965 48.3099 94.683 48.5964 95.0365 48.5964Z" fill="black"/>
<path opacity="0.28" d="M98.5521 48.5964C98.9056 48.5964 99.1921 48.3099 99.1921 47.9564C99.1921 47.6029 98.9056 47.3164 98.5521 47.3164C98.1986 47.3164 97.9121 47.6029 97.9121 47.9564C97.9121 48.3099 98.1986 48.5964 98.5521 48.5964Z" fill="black"/>
<path opacity="0.28" d="M102.064 48.5964C102.417 48.5964 102.704 48.3099 102.704 47.9564C102.704 47.6029 102.417 47.3164 102.064 47.3164C101.71 47.3164 101.424 47.6029 101.424 47.9564C101.424 48.3099 101.71 48.5964 102.064 48.5964Z" fill="black"/>
<path opacity="0.28" d="M106.219 47.9563C106.22 48.0831 106.183 48.2072 106.114 48.313C106.044 48.4187 105.944 48.5014 105.827 48.5504C105.71 48.5995 105.581 48.6127 105.457 48.5885C105.333 48.5643 105.218 48.5036 105.128 48.4143C105.038 48.3249 104.977 48.2109 104.952 48.0866C104.927 47.9624 104.939 47.8335 104.988 47.7163C105.036 47.5991 105.118 47.499 105.223 47.4285C105.329 47.358 105.453 47.3203 105.579 47.3203C105.748 47.3203 105.911 47.3872 106.031 47.5063C106.15 47.6255 106.218 47.7873 106.219 47.9563Z" fill="black"/>
<path opacity="0.28" d="M109.093 48.5964C109.447 48.5964 109.733 48.3099 109.733 47.9564C109.733 47.6029 109.447 47.3164 109.093 47.3164C108.74 47.3164 108.453 47.6029 108.453 47.9564C108.453 48.3099 108.74 48.5964 109.093 48.5964Z" fill="black"/>
<path opacity="0.28" d="M112.609 48.5964C112.962 48.5964 113.249 48.3099 113.249 47.9564C113.249 47.6029 112.962 47.3164 112.609 47.3164C112.255 47.3164 111.969 47.6029 111.969 47.9564C111.969 48.3099 112.255 48.5964 112.609 48.5964Z" fill="black"/>
<path opacity="0.28" d="M116.124 48.5964C116.478 48.5964 116.764 48.3099 116.764 47.9564C116.764 47.6029 116.478 47.3164 116.124 47.3164C115.771 47.3164 115.484 47.6029 115.484 47.9564C115.484 48.3099 115.771 48.5964 116.124 48.5964Z" fill="black"/>
<path opacity="0.28" d="M95.0365 51.8112C95.3899 51.8112 95.6765 51.5247 95.6765 51.1712C95.6765 50.8178 95.3899 50.5312 95.0365 50.5312C94.683 50.5312 94.3965 50.8178 94.3965 51.1712C94.3965 51.5247 94.683 51.8112 95.0365 51.8112Z" fill="black"/>
<path opacity="0.28" d="M98.5521 51.8112C98.9056 51.8112 99.1921 51.5247 99.1921 51.1712C99.1921 50.8178 98.9056 50.5312 98.5521 50.5312C98.1986 50.5312 97.9121 50.8178 97.9121 51.1712C97.9121 51.5247 98.1986 51.8112 98.5521 51.8112Z" fill="black"/>
<path opacity="0.28" d="M102.064 51.8112C102.417 51.8112 102.704 51.5247 102.704 51.1712C102.704 50.8178 102.417 50.5312 102.064 50.5312C101.71 50.5312 101.424 50.8178 101.424 51.1712C101.424 51.5247 101.71 51.8112 102.064 51.8112Z" fill="black"/>
<path opacity="0.28" d="M106.219 51.1712C106.22 51.2979 106.183 51.422 106.114 51.5278C106.044 51.6336 105.944 51.7162 105.827 51.7653C105.71 51.8143 105.581 51.8276 105.457 51.8033C105.333 51.7791 105.218 51.7185 105.128 51.6291C105.038 51.5398 104.977 51.4258 104.952 51.3015C104.927 51.1772 104.939 51.0484 104.988 50.9312C105.036 50.814 105.118 50.7138 105.223 50.6433C105.329 50.5728 105.453 50.5352 105.579 50.5352C105.748 50.5352 105.911 50.602 106.031 50.7212C106.15 50.8404 106.218 51.0021 106.219 51.1712Z" fill="black"/>
<path opacity="0.28" d="M109.093 51.8112C109.447 51.8112 109.733 51.5247 109.733 51.1712C109.733 50.8178 109.447 50.5312 109.093 50.5312C108.74 50.5312 108.453 50.8178 108.453 51.1712C108.453 51.5247 108.74 51.8112 109.093 51.8112Z" fill="black"/>
<path opacity="0.28" d="M112.609 51.8112C112.962 51.8112 113.249 51.5247 113.249 51.1712C113.249 50.8178 112.962 50.5312 112.609 50.5312C112.255 50.5312 111.969 50.8178 111.969 51.1712C111.969 51.5247 112.255 51.8112 112.609 51.8112Z" fill="black"/>
<path opacity="0.28" d="M116.124 51.8112C116.478 51.8112 116.764 51.5247 116.764 51.1712C116.764 50.8178 116.478 50.5312 116.124 50.5312C115.771 50.5312 115.484 50.8178 115.484 51.1712C115.484 51.5247 115.771 51.8112 116.124 51.8112Z" fill="black"/>
<path opacity="0.28" d="M95.0365 55.0281C95.3899 55.0281 95.6765 54.7415 95.6765 54.388C95.6765 54.0346 95.3899 53.748 95.0365 53.748C94.683 53.748 94.3965 54.0346 94.3965 54.388C94.3965 54.7415 94.683 55.0281 95.0365 55.0281Z" fill="black"/>
<path opacity="0.28" d="M98.5521 55.0281C98.9056 55.0281 99.1921 54.7415 99.1921 54.388C99.1921 54.0346 98.9056 53.748 98.5521 53.748C98.1986 53.748 97.9121 54.0346 97.9121 54.388C97.9121 54.7415 98.1986 55.0281 98.5521 55.0281Z" fill="black"/>
<path opacity="0.28" d="M102.064 55.0281C102.417 55.0281 102.704 54.7415 102.704 54.388C102.704 54.0346 102.417 53.748 102.064 53.748C101.71 53.748 101.424 54.0346 101.424 54.388C101.424 54.7415 101.71 55.0281 102.064 55.0281Z" fill="black"/>
<path opacity="0.28" d="M106.219 54.3998C106.219 54.5263 106.182 54.6501 106.112 54.7553C106.041 54.8606 105.941 54.9426 105.824 54.9911C105.707 55.0395 105.579 55.0522 105.455 55.0275C105.33 55.0028 105.216 54.9418 105.127 54.8523C105.037 54.7628 104.976 54.6488 104.952 54.5246C104.927 54.4005 104.94 54.2718 104.988 54.1549C105.037 54.0379 105.119 53.938 105.224 53.8676C105.329 53.7973 105.453 53.7598 105.579 53.7598C105.749 53.7598 105.912 53.8272 106.032 53.9472C106.152 54.0672 106.219 54.23 106.219 54.3998Z" fill="black"/>
<path opacity="0.28" d="M109.093 55.0281C109.447 55.0281 109.733 54.7415 109.733 54.388C109.733 54.0346 109.447 53.748 109.093 53.748C108.74 53.748 108.453 54.0346 108.453 54.388C108.453 54.7415 108.74 55.0281 109.093 55.0281Z" fill="black"/>
<path opacity="0.28" d="M112.609 55.0281C112.962 55.0281 113.249 54.7415 113.249 54.388C113.249 54.0346 112.962 53.748 112.609 53.748C112.255 53.748 111.969 54.0346 111.969 54.388C111.969 54.7415 112.255 55.0281 112.609 55.0281Z" fill="black"/>
<path opacity="0.28" d="M116.124 55.0281C116.478 55.0281 116.764 54.7415 116.764 54.388C116.764 54.0346 116.478 53.748 116.124 53.748C115.771 53.748 115.484 54.0346 115.484 54.388C115.484 54.7415 115.771 55.0281 116.124 55.0281Z" fill="black"/>
<path opacity="0.28" d="M95.6765 57.599C95.6765 57.7256 95.639 57.8493 95.5686 57.9546C95.4983 58.0598 95.3984 58.1418 95.2814 58.1903C95.1645 58.2387 95.0358 58.2514 94.9116 58.2267C94.7875 58.202 94.6734 58.141 94.5839 58.0515C94.4944 57.962 94.4335 57.848 94.4088 57.7238C94.3841 57.5997 94.3968 57.471 94.4452 57.3541C94.4936 57.2371 94.5757 57.1372 94.6809 57.0668C94.7862 56.9965 94.9099 56.959 95.0365 56.959C95.2062 56.959 95.369 57.0264 95.489 57.1464C95.6091 57.2665 95.6765 57.4292 95.6765 57.599Z" fill="black"/>
<path opacity="0.28" d="M99.1921 57.599C99.1921 57.7256 99.1546 57.8493 99.0843 57.9546C99.0139 58.0598 98.914 58.1418 98.797 58.1903C98.6801 58.2387 98.5514 58.2514 98.4273 58.2267C98.3031 58.202 98.1891 58.141 98.0996 58.0515C98.0101 57.962 97.9491 57.848 97.9244 57.7238C97.8997 57.5997 97.9124 57.471 97.9608 57.3541C98.0093 57.2371 98.0913 57.1372 98.1965 57.0668C98.3018 56.9965 98.4255 56.959 98.5521 56.959C98.7218 56.959 98.8846 57.0264 99.0047 57.1464C99.1247 57.2665 99.1921 57.4292 99.1921 57.599Z" fill="black"/>
<path opacity="0.28" d="M102.704 57.599C102.704 57.7256 102.666 57.8493 102.596 57.9546C102.526 58.0598 102.426 58.1418 102.309 58.1903C102.192 58.2387 102.063 58.2514 101.939 58.2267C101.815 58.202 101.701 58.141 101.611 58.0515C101.522 57.962 101.461 57.848 101.436 57.7238C101.411 57.5997 101.424 57.471 101.473 57.3541C101.521 57.2371 101.603 57.1372 101.708 57.0668C101.814 56.9965 101.937 56.959 102.064 56.959C102.234 56.959 102.396 57.0264 102.516 57.1464C102.636 57.2665 102.704 57.4292 102.704 57.599Z" fill="black"/>
<path opacity="0.28" d="M106.219 57.599C106.219 57.7256 106.182 57.8493 106.112 57.9546C106.041 58.0598 105.941 58.1418 105.824 58.1903C105.707 58.2387 105.579 58.2514 105.455 58.2267C105.33 58.202 105.216 58.141 105.127 58.0515C105.037 57.962 104.976 57.848 104.952 57.7238C104.927 57.5997 104.94 57.471 104.988 57.3541C105.037 57.2371 105.119 57.1372 105.224 57.0668C105.329 56.9965 105.453 56.959 105.579 56.959C105.749 56.959 105.912 57.0264 106.032 57.1464C106.152 57.2665 106.219 57.4292 106.219 57.599Z" fill="black"/>
<path opacity="0.28" d="M109.733 57.599C109.733 57.7256 109.696 57.8493 109.625 57.9546C109.555 58.0598 109.455 58.1418 109.338 58.1903C109.221 58.2387 109.092 58.2514 108.968 58.2267C108.844 58.202 108.73 58.141 108.641 58.0515C108.551 57.962 108.49 57.848 108.465 57.7238C108.441 57.5997 108.453 57.471 108.502 57.3541C108.55 57.2371 108.632 57.1372 108.738 57.0668C108.843 56.9965 108.967 56.959 109.093 56.959C109.263 56.959 109.426 57.0264 109.546 57.1464C109.666 57.2665 109.733 57.4292 109.733 57.599Z" fill="black"/>
<path opacity="0.28" d="M113.249 57.599C113.249 57.7256 113.211 57.8493 113.141 57.9546C113.071 58.0598 112.971 58.1418 112.854 58.1903C112.737 58.2387 112.608 58.2514 112.484 58.2267C112.36 58.202 112.246 58.141 112.156 58.0515C112.067 57.962 112.006 57.848 111.981 57.7238C111.956 57.5997 111.969 57.471 112.017 57.3541C112.066 57.2371 112.148 57.1372 112.253 57.0668C112.358 56.9965 112.482 56.959 112.609 56.959C112.778 56.959 112.941 57.0264 113.061 57.1464C113.181 57.2665 113.249 57.4292 113.249 57.599Z" fill="black"/>
<path opacity="0.28" d="M116.76 57.599C116.76 57.7257 116.723 57.8496 116.652 57.955C116.582 58.0603 116.482 58.1423 116.364 58.1907C116.247 58.239 116.118 58.2514 115.994 58.2264C115.87 58.2014 115.756 58.14 115.667 58.0501C115.577 57.9602 115.517 57.8458 115.492 57.7214C115.468 57.597 115.481 57.4682 115.53 57.3513C115.579 57.2344 115.662 57.1348 115.768 57.0649C115.874 56.9951 115.998 56.9582 116.124 56.959C116.294 56.9601 116.455 57.0279 116.574 57.1479C116.694 57.2678 116.76 57.43 116.76 57.599Z" fill="black"/>
<path opacity="0.28" d="M95.6765 60.8197C95.6765 60.9463 95.639 61.07 95.5686 61.1753C95.4983 61.2805 95.3984 61.3625 95.2814 61.411C95.1645 61.4594 95.0358 61.4721 94.9116 61.4474C94.7875 61.4227 94.6734 61.3617 94.5839 61.2722C94.4944 61.1827 94.4335 61.0687 94.4088 60.9445C94.3841 60.8204 94.3968 60.6917 94.4452 60.5748C94.4936 60.4578 94.5757 60.3579 94.6809 60.2875C94.7862 60.2172 94.9099 60.1797 95.0365 60.1797C95.2062 60.1797 95.369 60.2471 95.489 60.3671C95.6091 60.4872 95.6765 60.65 95.6765 60.8197Z" fill="black"/>
<path opacity="0.28" d="M99.1921 60.8197C99.1921 60.9463 99.1546 61.07 99.0843 61.1753C99.0139 61.2805 98.914 61.3625 98.797 61.411C98.6801 61.4594 98.5514 61.4721 98.4273 61.4474C98.3031 61.4227 98.1891 61.3617 98.0996 61.2722C98.0101 61.1827 97.9491 61.0687 97.9244 60.9445C97.8997 60.8204 97.9124 60.6917 97.9608 60.5748C98.0093 60.4578 98.0913 60.3579 98.1965 60.2875C98.3018 60.2172 98.4255 60.1797 98.5521 60.1797C98.7218 60.1797 98.8846 60.2471 99.0047 60.3671C99.1247 60.4872 99.1921 60.65 99.1921 60.8197Z" fill="black"/>
<path opacity="0.28" d="M102.704 60.8197C102.704 60.9463 102.666 61.07 102.596 61.1753C102.526 61.2805 102.426 61.3625 102.309 61.411C102.192 61.4594 102.063 61.4721 101.939 61.4474C101.815 61.4227 101.701 61.3618 101.611 61.2722C101.522 61.1827 101.461 61.0687 101.436 60.9446C101.411 60.8204 101.424 60.6917 101.473 60.5748C101.521 60.4578 101.603 60.3579 101.708 60.2876C101.814 60.2172 101.937 60.1797 102.064 60.1797C102.148 60.1792 102.231 60.1954 102.309 60.2273C102.387 60.2593 102.458 60.3064 102.518 60.366C102.577 60.4255 102.624 60.4963 102.656 60.5742C102.688 60.652 102.704 60.7355 102.704 60.8197Z" fill="black"/>
<path opacity="0.28" d="M106.219 60.8197C106.219 60.9463 106.182 61.07 106.112 61.1753C106.041 61.2805 105.941 61.3625 105.824 61.411C105.707 61.4594 105.579 61.4721 105.455 61.4474C105.33 61.4227 105.216 61.3617 105.127 61.2722C105.037 61.1827 104.976 61.0687 104.952 60.9445C104.927 60.8204 104.94 60.6917 104.988 60.5748C105.037 60.4578 105.119 60.3579 105.224 60.2875C105.329 60.2172 105.453 60.1797 105.579 60.1797C105.749 60.1797 105.912 60.2471 106.032 60.3671C106.152 60.4872 106.219 60.65 106.219 60.8197Z" fill="black"/>
<path opacity="0.28" d="M109.733 60.8197C109.733 60.9463 109.696 61.07 109.625 61.1753C109.555 61.2805 109.455 61.3625 109.338 61.411C109.221 61.4594 109.092 61.4721 108.968 61.4474C108.844 61.4227 108.73 61.3618 108.641 61.2722C108.551 61.1827 108.49 61.0687 108.465 60.9446C108.441 60.8204 108.453 60.6917 108.502 60.5748C108.55 60.4578 108.632 60.3579 108.738 60.2876C108.843 60.2172 108.967 60.1797 109.093 60.1797C109.177 60.1792 109.261 60.1954 109.339 60.2273C109.417 60.2593 109.487 60.3064 109.547 60.366C109.606 60.4255 109.654 60.4963 109.685 60.5742C109.717 60.652 109.734 60.7355 109.733 60.8197Z" fill="black"/>
<path opacity="0.28" d="M113.249 60.8197C113.249 60.9463 113.211 61.07 113.141 61.1753C113.071 61.2805 112.971 61.3625 112.854 61.411C112.737 61.4594 112.608 61.4721 112.484 61.4474C112.36 61.4227 112.246 61.3617 112.156 61.2722C112.067 61.1827 112.006 61.0687 111.981 60.9445C111.956 60.8204 111.969 60.6917 112.017 60.5748C112.066 60.4578 112.148 60.3579 112.253 60.2875C112.358 60.2172 112.482 60.1797 112.609 60.1797C112.778 60.1797 112.941 60.2471 113.061 60.3671C113.181 60.4872 113.249 60.65 113.249 60.8197Z" fill="black"/>
<path opacity="0.28" d="M116.76 60.8197C116.76 60.9465 116.723 61.0703 116.652 61.1757C116.582 61.281 116.482 61.363 116.364 61.4114C116.247 61.4597 116.118 61.4721 115.994 61.4471C115.87 61.4221 115.756 61.3607 115.667 61.2708C115.577 61.1809 115.517 61.0665 115.492 60.9421C115.468 60.8177 115.481 60.6889 115.53 60.572C115.579 60.4551 115.662 60.3554 115.768 60.2856C115.874 60.2158 115.998 60.1789 116.124 60.1797C116.208 60.1797 116.291 60.1963 116.369 60.2285C116.446 60.2607 116.516 60.3079 116.576 60.3674C116.635 60.4269 116.681 60.4975 116.713 60.5751C116.745 60.6527 116.761 60.7358 116.76 60.8197Z" fill="black"/>
<path opacity="0.28" d="M95.6765 64.0345C95.6765 64.1611 95.639 64.2848 95.5686 64.3901C95.4983 64.4953 95.3984 64.5774 95.2814 64.6258C95.1645 64.6743 95.0358 64.6869 94.9116 64.6622C94.7875 64.6375 94.6734 64.5766 94.5839 64.4871C94.4944 64.3976 94.4335 64.2835 94.4088 64.1594C94.3841 64.0352 94.3968 63.9066 94.4452 63.7896C94.4936 63.6727 94.5757 63.5727 94.6809 63.5024C94.7862 63.4321 94.9099 63.3945 95.0365 63.3945C95.2062 63.3945 95.369 63.462 95.489 63.582C95.6091 63.702 95.6765 63.8648 95.6765 64.0345Z" fill="black"/>
<path opacity="0.28" d="M99.1921 64.0345C99.1921 64.1611 99.1546 64.2848 99.0843 64.3901C99.0139 64.4953 98.914 64.5774 98.797 64.6258C98.6801 64.6743 98.5514 64.6869 98.4273 64.6622C98.3031 64.6375 98.1891 64.5766 98.0996 64.4871C98.0101 64.3976 97.9491 64.2835 97.9244 64.1594C97.8997 64.0352 97.9124 63.9066 97.9608 63.7896C98.0093 63.6727 98.0913 63.5727 98.1965 63.5024C98.3018 63.4321 98.4255 63.3945 98.5521 63.3945C98.7218 63.3945 98.8846 63.462 99.0047 63.582C99.1247 63.702 99.1921 63.8648 99.1921 64.0345Z" fill="black"/>
<path opacity="0.28" d="M102.704 64.0345C102.704 64.1611 102.666 64.2849 102.596 64.3901C102.526 64.4954 102.426 64.5774 102.309 64.6258C102.192 64.6743 102.063 64.6869 101.939 64.6622C101.815 64.6375 101.701 64.5766 101.611 64.4871C101.522 64.3976 101.461 64.2835 101.436 64.1594C101.411 64.0353 101.424 63.9066 101.473 63.7896C101.521 63.6727 101.603 63.5727 101.708 63.5024C101.814 63.4321 101.937 63.3945 102.064 63.3945C102.148 63.394 102.231 63.4102 102.309 63.4422C102.387 63.4742 102.458 63.5213 102.518 63.5808C102.577 63.6403 102.624 63.7111 102.656 63.789C102.688 63.8669 102.704 63.9503 102.704 64.0345Z" fill="black"/>
<path opacity="0.28" d="M106.219 64.0345C106.219 64.1611 106.182 64.2848 106.112 64.3901C106.041 64.4953 105.941 64.5774 105.824 64.6258C105.707 64.6743 105.579 64.6869 105.455 64.6622C105.33 64.6375 105.216 64.5766 105.127 64.4871C105.037 64.3976 104.976 64.2835 104.952 64.1594C104.927 64.0352 104.94 63.9066 104.988 63.7896C105.037 63.6727 105.119 63.5727 105.224 63.5024C105.329 63.4321 105.453 63.3945 105.579 63.3945C105.749 63.3945 105.912 63.462 106.032 63.582C106.152 63.702 106.219 63.8648 106.219 64.0345Z" fill="black"/>
<path opacity="0.28" d="M109.733 64.0345C109.733 64.1611 109.696 64.2849 109.625 64.3901C109.555 64.4954 109.455 64.5774 109.338 64.6258C109.221 64.6743 109.092 64.6869 108.968 64.6622C108.844 64.6375 108.73 64.5766 108.641 64.4871C108.551 64.3976 108.49 64.2835 108.465 64.1594C108.441 64.0353 108.453 63.9066 108.502 63.7896C108.55 63.6727 108.632 63.5727 108.738 63.5024C108.843 63.4321 108.967 63.3945 109.093 63.3945C109.177 63.394 109.261 63.4102 109.339 63.4422C109.417 63.4742 109.487 63.5213 109.547 63.5808C109.606 63.6403 109.654 63.7111 109.685 63.789C109.717 63.8669 109.734 63.9503 109.733 64.0345Z" fill="black"/>
<path opacity="0.28" d="M113.249 64.0345C113.249 64.1611 113.211 64.2848 113.141 64.3901C113.071 64.4953 112.971 64.5774 112.854 64.6258C112.737 64.6743 112.608 64.6869 112.484 64.6622C112.36 64.6375 112.246 64.5766 112.156 64.4871C112.067 64.3976 112.006 64.2835 111.981 64.1594C111.956 64.0352 111.969 63.9066 112.017 63.7896C112.066 63.6727 112.148 63.5727 112.253 63.5024C112.358 63.4321 112.482 63.3945 112.609 63.3945C112.778 63.3945 112.941 63.462 113.061 63.582C113.181 63.702 113.249 63.8648 113.249 64.0345Z" fill="black"/>
<path opacity="0.28" d="M116.76 64.0345C116.76 64.1613 116.723 64.2852 116.652 64.3905C116.582 64.4959 116.482 64.5779 116.364 64.6262C116.247 64.6745 116.118 64.687 115.994 64.6619C115.87 64.6369 115.756 64.5756 115.667 64.4857C115.577 64.3958 115.517 64.2813 115.492 64.1569C115.468 64.0325 115.481 63.9037 115.53 63.7868C115.579 63.67 115.662 63.5703 115.768 63.5005C115.874 63.4306 115.998 63.3938 116.124 63.3945C116.208 63.3945 116.291 63.4111 116.369 63.4433C116.446 63.4755 116.516 63.5228 116.576 63.5822C116.635 63.6417 116.681 63.7123 116.713 63.7899C116.745 63.8675 116.761 63.9507 116.76 64.0345Z" fill="black"/>
<path d="M94.4395 71.1719H104.259" stroke="white" stroke-width="0.4" stroke-linecap="round" stroke-linejoin="round"/>
<path d="M94.4395 77.8027H104.259" stroke="white" stroke-width="0.4" stroke-linecap="round" stroke-linejoin="round"/>
<path d="M94.4395 84.4355H104.259" stroke="white" stroke-width="0.4" stroke-linecap="round" stroke-linejoin="round"/>
<path d="M173.075 54.8009C173.075 54.8009 171.875 57.9529 172.119 58.3729C172.363 58.7929 172.991 59.8409 172.655 60.6809C172.319 61.5209 170.987 61.6649 171.155 62.3369C171.323 63.0089 172.247 63.5129 172.247 63.5129C172.247 63.5129 173.243 67.9889 173.663 68.5769C174.083 69.1649 176.351 68.8289 176.351 68.8289L176.519 71.0969L183.243 70.6769L182.991 66.6449L182.655 54.2129L173.075 54.8009Z" fill="black" stroke="white" stroke-width="0.4" stroke-linecap="round" stroke-linejoin="round"/>
<path d="M185.513 53.361C185.123 52.813 184.619 52.3561 184.035 52.0219C183.452 51.6876 182.803 51.484 182.133 51.425C182.133 51.425 180.417 49.957 178.705 49.957C176.993 49.957 176.261 50.813 175.161 50.813C174.061 50.813 173.325 49.469 171.489 51.425C169.653 53.381 171.981 55.461 171.981 55.461C172.211 55.7043 172.495 55.8892 172.811 56.0005C173.127 56.1118 173.465 56.1462 173.797 56.101C173.721 56.473 173.565 57.301 173.501 57.913C173.417 58.753 174.929 59.677 174.929 59.677C174.88 60.2383 174.909 60.8034 175.013 61.357C175.181 61.777 175.601 61.861 175.853 61.525C176.105 61.189 176.273 59.593 176.525 60.265C176.777 60.937 177.785 65.977 178.457 66.565C179.129 67.153 182.157 66.817 182.997 66.649C183.837 66.481 185.433 62.953 186.197 60.853C186.961 58.753 186.605 55.041 185.513 53.361Z" fill="black" stroke="white" stroke-width="0.4" stroke-linecap="round" stroke-linejoin="round"/>
<path d="M175.8 60.2086C175.911 60.9896 175.979 61.7761 176.004 62.5646C176.004 63.4886 175.388 64.0006 175.8 64.4126C176.212 64.8246 176.516 64.6166 176.824 63.8966C177.155 63.0496 177.292 62.1393 177.224 61.2326C177.132 60.5166 177.028 58.9766 175.8 60.2086Z" fill="white" stroke="rgba(255,255,255,0.4)" stroke-width="0.4" stroke-linecap="round" stroke-linejoin="round"/>
<path d="M168.96 107.404C168.96 107.404 166.86 121.404 165.24 135.196C163.62 148.988 163.82 168.236 163.82 168.236L168.092 168.212C168.092 168.212 172.94 141.276 173.956 138.236C174.972 135.196 178.416 122.424 178.416 122.424C178.416 122.424 180.24 137.02 180.848 138.024C181.456 139.028 189.7 168.4 189.7 168.4L194.164 168.344L189.764 136.632L187.328 107.432L168.96 107.404Z" fill="black" stroke="white" stroke-width="0.4" stroke-linecap="round" stroke-linejoin="round"/>
<path d="M186.268 117.648L180.304 119.908L178.416 122.424" stroke="white" stroke-width="0.3" stroke-linecap="round" stroke-linejoin="round"/>
<path d="M171.92 111.041H177.24" stroke="white" stroke-width="0.3" stroke-linecap="round" stroke-linejoin="round"/>
<path d="M186.912 111.041H184.816" stroke="white" stroke-width="0.3" stroke-linecap="round" stroke-linejoin="round"/>
<path d="M168.008 172.361H166.129V172.001L165.866 172.088L165.042 172.361H157.157C157.038 172.361 156.967 172.351 156.927 172.339C156.913 172.335 156.905 172.33 156.9 172.328V172.247C156.937 172.224 156.989 172.192 157.06 172.154C157.222 172.067 157.459 171.952 157.746 171.819C158.32 171.554 159.087 171.22 159.855 170.893C160.623 170.565 161.391 170.244 161.968 170.006C162.256 169.887 162.497 169.788 162.665 169.719C162.749 169.684 162.814 169.657 162.859 169.639C162.882 169.629 162.9 169.623 162.911 169.618C162.917 169.616 162.921 169.613 162.924 169.612C162.925 169.612 162.927 169.612 162.928 169.611H162.929V169.61L162.981 169.589L163.015 169.543L163.695 168.6L168.059 168.552L168.008 172.361Z" fill="black" stroke="white" stroke-width="0.4"/>
<rect width="11" height="12" transform="translate(133 50)" fill="#FD632B"/>
<path d="M194.151 172.361H192.268V172L192.005 172.088L191.185 172.361H183.296C183.177 172.361 183.106 172.352 183.066 172.34C183.054 172.336 183.046 172.332 183.042 172.33V172.248C183.078 172.224 183.132 172.193 183.203 172.154C183.366 172.067 183.602 171.952 183.889 171.819C184.462 171.554 185.228 171.219 185.996 170.892C186.764 170.564 187.531 170.244 188.107 170.006C188.395 169.887 188.636 169.788 188.804 169.719C188.888 169.684 188.954 169.657 188.999 169.639C189.021 169.63 189.038 169.623 189.05 169.618C189.056 169.616 189.061 169.614 189.063 169.612C189.065 169.612 189.067 169.612 189.067 169.611V169.61L189.12 169.589L189.154 169.543L189.835 168.6L194.201 168.552L194.151 172.361Z" fill="black" stroke="white" stroke-width="0.4"/>
<path d="M174.924 70.8329L173.076 74.1929C173.076 74.1929 177.696 72.8489 180.216 72.8489C181.992 72.8805 183.762 73.049 185.512 73.3529L184.18 70.6289C184.18 70.6289 177.948 69.4049 174.924 70.8329Z" fill="black" stroke="white" stroke-width="0.4" stroke-linecap="round" stroke-linejoin="round"/>
<path d="M192.2 75.8047L197.884 98.9207C197.965 99.2534 197.976 99.5996 197.915 99.9368C197.855 100.274 197.724 100.595 197.531 100.878C197.338 101.161 197.088 101.401 196.797 101.581C196.505 101.761 196.179 101.878 195.84 101.925L183.592 103.601L183.884 99.6447L190.036 96.7167L188.716 90.1247C188.716 90.1247 190.1 75.9727 192.2 75.8047Z" fill="black" stroke="white" stroke-width="0.4" stroke-linecap="round" stroke-linejoin="round"/>
<path d="M173.641 73.2496C172.006 73.5795 170.415 74.1004 168.901 74.8016C168.081 75.2098 167.24 75.5743 166.381 75.8936C166.381 75.8936 168.553 104.058 168.553 105.494C168.553 106.93 168.469 107.006 168.953 107.426C169.437 107.846 172.065 108.038 176.685 107.954C181.305 107.87 185.421 107.93 185.841 107.93C186.18 107.905 186.509 107.801 186.801 107.626C187.093 107.451 187.34 107.21 187.521 106.922C188.025 106.166 192.109 76.1616 192.193 75.8256C192.277 75.4896 185.845 73.5456 185.253 73.3736C181.961 72.4016 177.545 72.4336 173.641 73.2496Z" fill="black" stroke="white" stroke-width="0.4" stroke-linecap="round" stroke-linejoin="round"/>
<path d="M183.932 95.2012C183.402 95.6811 182.836 96.1209 182.24 96.5172" stroke="white" stroke-width="0.4" stroke-linecap="round" stroke-linejoin="round"/>
<path d="M190.099 84.2246C190.099 84.2246 188.931 89.3846 185.523 93.5006" stroke="white" stroke-width="0.4" stroke-linecap="round" stroke-linejoin="round"/>
<path d="M190.629 96.8008C190.629 96.8008 191.861 98.5288 194.873 98.7288" stroke="white" stroke-width="0.4" stroke-linecap="round" stroke-linejoin="round"/>
<path d="M190.035 96.7246C190.237 97.3528 190.565 97.9335 190.998 98.4313C191.431 98.9291 191.961 99.3337 192.555 99.6206" stroke="white" stroke-width="0.4" stroke-linecap="round" stroke-linejoin="round"/>
<path d="M166.368 75.8819L154.5 79.6019L142.72 64.9219L140.432 66.8299L150.988 87.1379C151.312 87.7647 151.835 88.2666 152.475 88.5654C153.114 88.8641 153.835 88.9431 154.524 88.7899L167.116 86.0019C167.116 86.0019 168.668 81.7619 166.368 75.8819Z" fill="black" stroke="white" stroke-width="0.4" stroke-linecap="round" stroke-linejoin="round"/>
<path d="M154.124 80.082C154.124 80.082 152.968 81.626 153.096 83.282" stroke="white" stroke-width="0.4" stroke-linecap="round" stroke-linejoin="round"/>
<path d="M152.196 81.3691C152.196 81.3691 151.68 83.6811 152.596 85.0971" stroke="white" stroke-width="0.4" stroke-linecap="round" stroke-linejoin="round"/>
<path d="M167.117 86C167.117 86 170.065 89.452 172.377 90.608" stroke="white" stroke-width="0.4" stroke-linecap="round" stroke-linejoin="round"/>
<path d="M167.877 87.793C167.877 87.793 169.549 91.653 172.893 93.449" stroke="white" stroke-width="0.4" stroke-linecap="round" stroke-linejoin="round"/>
<path d="M141.449 68.861L143.993 67.209" stroke="white" stroke-width="0.4" stroke-linecap="round" stroke-linejoin="round"/>
<path d="M142.72 64.9215C142.72 64.9215 143.52 63.9295 143.52 63.0135C143.52 62.0975 142.88 61.0135 143.156 60.2655C143.432 59.5175 144.62 58.6175 143.612 58.3415C142.604 58.0655 141.78 58.6175 141.688 59.3495C141.596 60.0815 141.688 60.1735 141.688 60.1735C141.688 60.1735 140.588 57.9735 139.856 57.2415C139.124 56.5095 138.576 55.6855 138.116 55.6855C137.656 55.6855 137.2 55.9575 137.476 56.4175C137.752 56.8775 139.124 59.0735 139.124 59.0735L139.4 59.9895C139.4 59.9895 137.84 60.0815 137.656 60.3575C137.472 60.6335 137.568 61.4575 137.108 62.0055C136.648 62.5535 136.74 63.1055 136.924 63.6575C137.108 64.2095 137.656 65.1215 138.024 65.1215C138.25 65.1193 138.471 65.0557 138.664 64.9375L140.412 66.8295L142.72 64.9215Z" fill="black" stroke="white" stroke-width="0.4" stroke-linecap="round" stroke-linejoin="round"/>
<path d="M138.684 64.9365L137.768 63.5645" stroke="white" stroke-width="0.4" stroke-linecap="round" stroke-linejoin="round"/>
</svg>
